<svg viewBox="0 0 330 200" xmlns="http://www.w3.org/2000/svg"><g><g><g><g><g><line x1="29.4375" y1="177" x2="24.4375" y2="177" style="visibility: inherit;" fill="rgb(0, 0, 0)" stroke="rgb(204, 204, 204)" stroke-width="1px"></line><line x1="29.4375" y1="151.71428571428572" x2="24.4375" y2="151.71428571428572" style="visibility: inherit;" fill="rgb(0, 0, 0)" stroke="rgb(204, 204, 204)" stroke-width="1px"></line><line x1="29.4375" y1="126.42857142857143" x2="24.4375" y2="126.42857142857143" style="visibility: inherit;" fill="rgb(0, 0, 0)" stroke="rgb(204, 204, 204)" stroke-width="1px"></line><line x1="29.4375" y1="101.14285714285715" x2="24.4375" y2="101.14285714285715" style="visibility: inherit;" fill="rgb(0, 0, 0)" stroke="rgb(204, 204, 204)" stroke-width="1px"></line><line x1="29.4375" y1="75.85714285714286" x2="24.4375" y2="75.85714285714286" style="visibility: inherit;" fill="rgb(0, 0, 0)" stroke="rgb(204, 204, 204)" stroke-width="1px"></line><line x1="29.4375" y1="50.57142857142857" x2="24.4375" y2="50.57142857142857" style="visibility: inherit;" fill="rgb(0, 0, 0)" stroke="rgb(204, 204, 204)" stroke-width="1px"></line><line x1="29.4375" y1="25.285714285714306" x2="24.4375" y2="25.285714285714306" style="visibility: inherit;" fill="rgb(0, 0, 0)" stroke="rgb(204, 204, 204)" stroke-width="1px"></line><line x1="29.4375" y1="0" x2="24.4375" y2="0" style="visibility: inherit;" fill="rgb(0, 0, 0)" stroke="rgb(204, 204, 204)" stroke-width="1px"></line></g><g transform="translate(19.4375, 0)"><text x="0" y="177" dx="0em" dy="0.3em" style="text-anchor: end; visibility: hidden; font-family: &quot;Helvetica Neue&quot;, sans-serif; font-size: 12px; font-weight: 200;" fill="rgb(50, 49, 63)" stroke="none" stroke-width="1px">-5</text><text x="0" y="151.71428571428572" dx="0em" dy="0.3em" style="text-anchor: end; visibility: inherit; font-family: &quot;Helvetica Neue&quot;, sans-serif; font-size: 12px; font-weight: 200;" fill="rgb(50, 49, 63)" stroke="none" stroke-width="1px">0</text><text x="0" y="126.42857142857143" dx="0em" dy="0.3em" style="text-anchor: end; visibility: inherit; font-family: &quot;Helvetica Neue&quot;, sans-serif; font-size: 12px; font-weight: 200;" fill="rgb(50, 49, 63)" stroke="none" stroke-width="1px">5</text><text x="0" y="101.14285714285715" dx="0em" dy="0.3em" style="text-anchor: end; visibility: inherit; font-family: &quot;Helvetica Neue&quot;, sans-serif; font-size: 12px; font-weight: 200;" fill="rgb(50, 49, 63)" stroke="none" stroke-width="1px">10</text><text x="0" y="75.85714285714286" dx="0em" dy="0.3em" style="text-anchor: end; visibility: inherit; font-family: &quot;Helvetica Neue&quot;, sans-serif; font-size: 12px; font-weight: 200;" fill="rgb(50, 49, 63)" stroke="none" stroke-width="1px">15</text><text x="0" y="50.57142857142857" dx="0em" dy="0.3em" style="text-anchor: end; visibility: inherit; font-family: &quot;Helvetica Neue&quot;, sans-serif; font-size: 12px; font-weight: 200;" fill="rgb(50, 49, 63)" stroke="none" stroke-width="1px">20</text><text x="0" y="25.285714285714306" dx="0em" dy="0.3em" style="text-anchor: end; visibility: inherit; font-family: &quot;Helvetica Neue&quot;, sans-serif; font-size: 12px; font-weight: 200;" fill="rgb(50, 49, 63)" stroke="none" stroke-width="1px">25</text><text x="0" y="0" dx="0em" dy="0.3em" style="text-anchor: end; visibility: hidden; font-family: &quot;Helvetica Neue&quot;, sans-serif; font-size: 12px; font-weight: 200;" fill="rgb(50, 49, 63)" stroke="none" stroke-width="1px">30</text></g><line x1="29.4375" y1="0" x2="29.4375" y2="177" fill="rgb(0, 0, 0)" stroke="rgb(204, 204, 204)" stroke-width="1px"></line></g></g><g transform="translate(29, 0)" clip-path="url(#clip_0)"><clipPath id="clip_0"><rect width="300" height="177"></rect></clipPath><g><g><g><line x1="0" y1="0" x2="0" y2="177" fill="rgb(0, 0, 0)" stroke="rgb(60, 60, 60)" stroke-width="1px" opacity="0.25"></line><line x1="42.9375" y1="0" x2="42.9375" y2="177" fill="rgb(0, 0, 0)" stroke="rgb(60, 60, 60)" stroke-width="1px" opacity="0.25"></line><line x1="85.875" y1="0" x2="85.875" y2="177" fill="rgb(0, 0, 0)" stroke="rgb(60, 60, 60)" stroke-width="1px" opacity="0.25"></line><line x1="128.8125" y1="0" x2="128.8125" y2="177" fill="rgb(0, 0, 0)" stroke="rgb(60, 60, 60)" stroke-width="1px" opacity="0.25"></line><line x1="171.75" y1="0" x2="171.75" y2="177" fill="rgb(0, 0, 0)" stroke="rgb(60, 60, 60)" stroke-width="1px" opacity="0.25"></line><line x1="214.6875" y1="0" x2="214.6875" y2="177" fill="rgb(0, 0, 0)" stroke="rgb(60, 60, 60)" stroke-width="1px" opacity="0.25"></line><line x1="257.625" y1="0" x2="257.625" y2="177" fill="rgb(0, 0, 0)" stroke="rgb(60, 60, 60)" stroke-width="1px" opacity="0.25"></line><line x1="300.5625" y1="0" x2="300.5625" y2="177" fill="rgb(0, 0, 0)" stroke="rgb(60, 60, 60)" stroke-width="1px" opacity="0.25"></line></g><g><line x1="0" y1="177" x2="300.5625" y2="177" fill="rgb(0, 0, 0)" stroke="rgb(60, 60, 60)" stroke-width="1px" opacity="0.25"></line><line x1="0" y1="151.71428571428572" x2="300.5625" y2="151.71428571428572" fill="rgb(0, 0, 0)" stroke="rgb(60, 60, 60)" stroke-width="1px" opacity="0.25"></line><line x1="0" y1="126.42857142857143" x2="300.5625" y2="126.42857142857143" fill="rgb(0, 0, 0)" stroke="rgb(60, 60, 60)" stroke-width="1px" opacity="0.25"></line><line x1="0" y1="101.14285714285715" x2="300.5625" y2="101.14285714285715" fill="rgb(0, 0, 0)" stroke="rgb(60, 60, 60)" stroke-width="1px" opacity="0.25"></line><line x1="0" y1="75.85714285714286" x2="300.5625" y2="75.85714285714286" fill="rgb(0, 0, 0)" stroke="rgb(60, 60, 60)" stroke-width="1px" opacity="0.25"></line><line x1="0" y1="50.57142857142857" x2="300.5625" y2="50.57142857142857" fill="rgb(0, 0, 0)" stroke="rgb(60, 60, 60)" stroke-width="1px" opacity="0.25"></line><line x1="0" y1="25.285714285714306" x2="300.5625" y2="25.285714285714306" fill="rgb(0, 0, 0)" stroke="rgb(60, 60, 60)" stroke-width="1px" opacity="0.25"></line><line x1="0" y1="0" x2="300.5625" y2="0" fill="rgb(0, 0, 0)" stroke="rgb(60, 60, 60)" stroke-width="1px" opacity="0.25"></line></g></g></g><g><g><line x1="0" y1="151.71428571428572" x2="300.5625" y2="151.71428571428572" fill="rgb(0, 0, 0)" stroke="rgb(153, 153, 153)" stroke-width="1.5px"></line></g></g><g><g><line x1="42.9375" y1="0" x2="42.9375" y2="177" fill="rgb(0, 0, 0)" stroke="rgb(153, 153, 153)" stroke-width="1.5px"></line></g></g><g><g><g><g><g><path stroke="rgb(204, 51, 17)" stroke-width="2px" d="M52.38375,-16.21418153954994L53.24249999999999,2.6549604713340216L54.10125,16.659777412948955L54.96,27.086381891586825L55.81875,33.87060452379285L56.6775,38.906984409423245L57.536249999999995,43.94001948846676L58.394999999999996,47.67854638426377L59.253750000000004,50.99770365634008L60.112500000000004,53.72480122838833L60.97125,56.386538608885516L61.83,58.215883753057085L62.68875,60.462826464763126L63.5475,62.62058108533327L64.40625,64.17897948773067L65.265,65.33744313420904L66.12375,67.21639630335292L66.9825,68.56340863878344L67.84125,69.98229695525355L68.7,71.21356948986354L69.55875,72.41860967879153L70.4175,73.87291934046617L71.27625,74.8536337800311L72.13499999999999,75.79728589685928L72.99375,76.7454000186154L73.8525,77.42833894248484L74.71125,78.4714913824956L75.57000000000001,79.85185483710674L76.42875,80.5784454489245L77.2875,81.71186551637494L78.14625000000001,82.5763922289422L79.005,83.0456622919337L79.86375000000001,84.1536245634625L80.7225,84.60432449441971L81.58125,85.57811527209971L82.44,86.54605461643848L83.29875,87.1436230216901L84.15750000000001,88.31108622758056L85.01625,89.22333818151945L85.875,89.81263286584114L86.73375,90.29293726563122L87.5925,91.15244640653425L88.45124999999999,91.66217539396992L89.31,92.27795531529206L90.16875,92.91666851388253L91.0275,93.7946396603142L91.88625,94.61770844610842L92.74499999999999,95.31835619472287L93.60375,95.8914541835783L94.46249999999999,96.46764206755493L95.32124999999999,97.24945003022327L96.18,97.73926927873664L97.03875,98.37715279954179L97.89750000000001,98.96334617758014L98.75625,99.88224103959078L99.615,100.63107630012863L100.47375000000001,100.7950759209812L101.3325,101.59135423135197L102.19125000000001,102.05437481864865L103.05,102.65318564078811L103.90875,103.29586381410805L104.7675,104.00018121963461L105.62625,104.83011681893898L106.48499999999999,105.29432582430842L107.34375,105.72072033763752L108.2025,106.45079537048152L109.06125,106.93473479500794L109.92,107.2613374742948L110.77874999999999,107.55101703840988L111.6375,108.08594757307384L112.49625,108.62719710786146L113.355,109.36926374506355L114.21375,110.2835179224183L115.07249999999999,110.48064159582333L115.93125,111.1937846451248L116.78999999999999,111.65227928404056L117.64874999999999,111.88456733304118L118.50750000000001,112.52541418326325L119.36625,113.02281114728706L120.22500000000001,113.5358620957819L121.08375,114.05241478489137L121.9425,114.4624401854141L122.80125000000001,114.90250831269063L123.66,115.39038810420024L124.51875000000001,115.87728847317688L125.3775,116.3838852037443L126.23625,116.86925539396637L127.095,117.44735515658942L127.95375,117.75421704685195L128.8125,118.27776179113434L129.67125000000001,118.49720032026863L130.53,119.04928724516586L131.38875000000002,119.59482807350507L132.2475,120.07671003292837L133.10625,120.48824261499803L133.965,120.98788812510756L134.82375,121.33654168679723L135.6825,121.80081913134104L136.54125,122.06653072767983L137.4,122.43721277537918L138.25875,123.1012317027031L139.1175,123.4939858358047L139.97625,123.92324171140015L140.835,124.35510619888947L141.69375,124.74726947211514L142.5525,124.95402860134247L143.41125,125.2540386741722L144.26999999999998,125.78230203336945L145.12875,126.1500207267704L145.9875,126.62067709801468L146.84625,127.11792965707193L147.705,127.34989249556327L148.56375,127.67710318271044L149.4225,127.90509750598333L150.28125,128.24873240800895L151.14000000000001,128.6621905382066L151.99875,128.89910819521225L152.8575,129.33934863970512L153.71625,129.6203121736738L154.575,130.14136954755145L155.43375,130.6477954594356L156.29250000000002,130.85407282707038L157.15125,131.14845396431735L158.01,131.3696763241863L158.86875,131.70743899066133L159.72750000000002,131.98886558773873L160.58624999999998,132.21990422039315L161.445,132.66785453098467L162.30375,132.961088711502L163.1625,133.23388252235932L164.02125,133.74515298012528L164.88,133.92368678929586L165.73874999999998,134.1203238316734L166.5975,134.37444691861114L167.45625,134.61804450701908L168.31500000000003,135.0337733671143L169.17374999999998,135.27306529960904L170.0325,135.41162901773887L170.89125,135.70956569908677L171.75,136.05489459207257L172.60875000000001,136.38464387859122L173.4675,136.70068552922908L174.32625,137.12570840071092L175.185,137.33076782912283L176.04375000000002,137.53643029488146L176.90249999999997,137.8664427836445L177.76125,138.06462872299082L178.62,138.28753722012698L179.47875000000002,138.41005564800724L180.3375,138.77153769723242L181.19625,138.9943040728072L182.055,139.24796117609313L182.91375,139.50509234842147L183.7725,139.67998736248305L184.63125000000002,139.96653570721935L185.48999999999998,140.14751627132955L186.34875,140.42771717769728L187.2075,140.66178416153343L188.06625,140.85296622053545L188.92499999999998,141.12897673364222L189.78375,141.30062947018675L190.64249999999998,141.4958372277925L191.50125,141.68030767730616L192.36,141.86452661551937L193.21875000000003,141.96899201715445L194.0775,142.24229431127753L194.93625,142.4511114732084L195.79500000000002,142.65213019089703L196.65375,142.82433910800526L197.5125,142.9848853668439L198.37125,143.19788117482045L199.23,143.36385093051743L200.08875,143.52494676779838L200.94750000000002,143.77177871082333L201.80624999999998,143.92148220343142L202.665,144.1672804078198L203.52375,144.25050644027468L204.38250000000002,144.4186408904884L205.24124999999998,144.50071671889387L206.1,144.68750918439724L206.95875,144.8674715843557L207.8175,145.0449021711291L208.67625,145.11530934930178L209.535,145.22035510448245L210.39374999999998,145.39141164928964L211.2525,145.56635410153189L212.11125,145.69049601652216L212.96999999999997,145.85942158757442L213.82874999999999,145.96690365962604L214.6875,146.11164830773808L215.54625000000001,146.2224970600845L216.405,146.45915851518845L217.26375000000002,146.55950944719768L218.1225,146.62667313412803L218.98125,146.7568699536765L219.84,146.85662957707737L220.69875000000002,146.9703835452947L221.55749999999998,147.1248774739459L222.41625,147.23551465619022L223.275,147.31948355099038L224.13375,147.45090195896228L224.9925,147.5561703797187L225.85125,147.70092313299895L226.71,147.84821411343324L227.56875,147.91372228231035L228.4275,147.9927688155532L229.28625000000002,148.07717522619214L230.14499999999998,148.1349436532313L231.00375,148.21366437499847L231.8625,148.31161600928297L232.72125,148.36499478311669L233.57999999999998,148.48514186079103L234.43875,148.54292138367344L235.29749999999999,148.61390697585358L236.15625,148.72435330032255L237.01500000000001,148.7990261469165L237.87375000000003,148.89527935877152L238.7325,148.92438369551977L239.59125,148.95233072869928L240.45000000000002,149.04292088971025L241.30875,149.16339034725803L242.1675,149.20383464730386L243.02625,149.32738977641398L243.885,149.4038613416414L244.74375,149.4178833345313L245.60250000000002,149.4605669207077L246.46124999999998,149.50545793113457L247.32,149.57809625809654L248.17875,149.62908983095787L249.03750000000002,149.69633349610237L249.89624999999998,149.74968341131728L250.755,149.81617758476568L251.61375,149.88248826965844L252.4725,149.9189681830884L253.33125,149.9707830473369L254.19,150.03032356698256L255.04874999999998,150.03987092272945L255.9075,150.10093896480592L256.76625,150.123837873804L257.625,150.2241563073458L258.48375,150.28963582227598L259.34250000000003,150.2957862131679L260.20125,150.34822858223052L261.06,150.39979966311893L261.91875,150.43531294295164L262.77750000000003,150.47353232503175L263.63625,150.51733464104933L264.495,150.56131203491432L265.35375,150.58377962030053L266.2125,150.60342581546269L267.07125,150.63592880243212L267.93,150.63968947931616L268.78875,150.6503421054835L269.6475,150.66912947489436L270.50625,150.70892502678745L271.365,150.76454499320744L272.22375,150.76206881173673L273.0825,150.77986350943152L273.94125,150.82668075512692L274.8,150.85856461921412L275.65875,150.91099038549282L276.5175,150.9030612562351L277.37624999999997,150.9237253531368L278.235,150.95753487018058L279.09375,151.0001157613066L279.9525,151.0096973197824L280.81125,151.03753941791535L281.67,151.05214721182497L282.52875,151.0466565174176" style="fill: none;" fill="none"></path></g></g></g></g><g opacity="0.2"><g><g><g><path stroke="rgb(204, 51, 17)" stroke-width="2px" d="M50.66625,-20.013838086809443L51.525,4.583691624232699L52.38375,21.011660385131847L53.24249999999999,30.897062465122758L54.10125,37.63956593104771L54.96,42.714032527378635L55.81875,44.04215371268137L56.6775,46.459423010689875L57.536249999999995,51.48829421997071L58.394999999999996,53.285767201014934L59.253750000000004,55.97613618033273L60.112500000000004,57.81529802594865L60.97125,60.37905709402902L61.83,60.95986535208564L62.68875,63.83321391514369L63.5475,65.85719767979214L64.40625,66.51657044546944L65.265,67.07513563973563L66.12375,70.03482317243304L66.9825,70.58392590114049L67.84125,72.11062864576067L68.7,73.06047788347516L69.55875,74.22616972242083L70.4175,76.05438365936278L71.27625,76.3247053691319L72.13499999999999,77.21276403154646L72.99375,78.1675711768014L73.8525,78.45274731772287L74.71125,80.0362200328282L75.57000000000001,81.92240001133511L76.42875,81.66833136422295L77.2875,83.41199561527797L78.14625000000001,83.87318229675293L79.005,83.74956738608223L79.86375000000001,85.81556797027588L80.7225,85.28037439073834L81.58125,87.03880143846784L82.44,87.9979636328561L83.29875,88.03997562953403L84.15750000000001,90.06228103637696L85.01625,90.59171611240932L85.875,90.69657489231655L86.73375,91.01339386531285L87.5925,92.44171011788505L88.45124999999999,92.42676887512206L89.31,93.20162519727435L90.16875,93.87473831176757L91.0275,95.11159637996128L91.88625,95.85231162479946L92.74499999999999,96.36932781764439L93.60375,96.75110116686139L94.46249999999999,97.3319238935198L95.32124999999999,98.42216197422573L96.18,98.47399815150669L97.03875,99.33397808074952L97.89750000000001,99.84263624463762L98.75625,101.26058333260671L99.615,101.75432919093541L100.47375000000001,101.04107535226005L101.3325,102.78577169690814L102.19125000000001,102.74890569959368L103.05,103.55140187399728L103.90875,104.25988107408796L104.7675,105.05665732792446L105.62625,106.07502021789551L106.48499999999999,105.99063933236259L107.34375,106.36031210763115L108.2025,107.54590791974749L109.06125,107.66064393179757L109.92,107.7512414932251L110.77874999999999,107.98553638458252L111.6375,108.88834337506975L112.49625,109.4390714100429L113.355,110.4823637008667L114.21375,111.65489918845041L115.07249999999999,110.77632710593087L115.93125,112.26349921907698L116.78999999999999,112.34002124241421L117.64874999999999,112.23299940654209L118.50750000000001,113.48668445859636L119.36625,113.76890659332275L120.22500000000001,114.30543851852417L121.08375,114.82724381855556L121.9425,115.07747828619821L122.80125000000001,115.56261050360544L123.66,116.12220779146466L124.51875000000001,116.60763902664183L125.3775,117.14378029959542L126.23625,117.59731067929948L127.095,118.31450480052402L127.95375,118.21450988224575L128.8125,119.0630789075579L129.67125000000001,118.82635811397007L130.53,119.87741763251168L131.38875000000002,120.41313931601388L132.2475,120.79953297206333L133.10625,121.1055414881025L133.965,121.73735639027187L134.82375,121.85952202933176L135.6825,122.49723529815674L136.54125,122.46509812218802L137.4,122.99323584692819L138.25875,124.09726009368896L139.1175,124.08311703545706L139.97625,124.56712552479335L140.835,125.00290293012347L141.69375,125.33551438195364L142.5525,125.26416729518346L143.41125,125.70405378341675L144.26999999999998,126.57469707216535L145.12875,126.70159876687185L145.9875,127.32666165488106L146.84625,127.86380849565779L147.705,127.69783675330027L148.56375,128.16791921343122L149.4225,128.24708899089268L150.28125,128.76418476104737L151.14000000000001,129.28237773350307L151.99875,129.25448468072074L152.8575,129.99970930644443L153.71625,130.04175747462682L154.575,130.92295560836791L155.43375,131.4074343272618L156.29250000000002,131.1634888785226L157.15125,131.59002567018783L158.01,131.70150986398968L158.86875,132.21408299037387L159.72750000000002,132.41100548335484L160.58624999999998,132.56646216937474L161.445,133.33977999687195L162.30375,133.400939982278L163.1625,133.6430732386453L164.02125,134.5120586667742L164.88,134.19148750305175L165.73874999999998,134.41527939523968L166.5975,134.75563154901778L167.45625,134.983440889631L168.31500000000003,135.65736665725709L169.17374999999998,135.63200319835119L170.0325,135.61947459493365L170.89125,136.15647072110858L171.75,136.57288793155126L172.60875000000001,136.87926780836924L173.4675,137.17474800518582L174.32625,137.7632427079337L175.185,137.63835697174073L176.04375000000002,137.8449239935194L176.90249999999997,138.36146151678903L177.76125,138.36190763201031L178.62,138.6218999658312L179.47875000000002,138.59383328982761L180.3375,139.3137607710702L181.19625,139.32845363616943L182.055,139.628446831022L182.91375,139.89078910691399L183.7725,139.94232988357544L184.63125000000002,140.39635822432382L185.48999999999998,140.41898711749485L186.34875,140.8480185372489L187.2075,141.0128846372877L188.06625,141.13973930903845L188.92499999999998,141.54299250330243L189.78375,141.55810857500347L190.64249999999998,141.78864886420115L191.50125,141.95701335157668L192.36,142.14085502283913L193.21875000000003,142.1256901196071L194.0775,142.6522477524621L194.93625,142.7643372161048L195.79500000000002,142.9536582674299L196.65375,143.08265248366766L197.5125,143.22570475510187L198.37125,143.51737488678523L199.23,143.61280556406294L200.08875,143.7665905237198L200.94750000000002,144.14202662536076L201.80624999999998,144.14603744234358L202.665,144.53597771440235L203.52375,144.375345488957L204.38250000000002,144.67084256580898L205.24124999999998,144.62383046150208L206.1,144.9676978826523L206.95875,145.13741518429347L207.8175,145.31104805128916L208.67625,145.2209201165608L209.535,145.37792373725347L210.39374999999998,145.64799646650042L211.2525,145.82876777989523L212.11125,145.87670888900757L212.96999999999997,146.11280994415284L213.82874999999999,146.12812676770346L214.6875,146.32876527990612L215.54625000000001,146.38877018860407L216.405,146.81415069784435L217.26375000000002,146.71003584521156L218.1225,146.72741866452353L218.98125,146.9521651829992L219.84,147.0062690121787L220.69875000000002,147.14101449762072L221.55749999999998,147.35661836692265L222.41625,147.4014704295567L223.275,147.44543689319065L224.13375,147.64802957092013L224.9925,147.71407301085335L225.85125,147.91805226291928L226.71,148.06915058408464L227.56875,148.011984535626L228.4275,148.11133861541748L229.28625000000002,148.20378484215055L230.14499999999998,148.22159629379001L231.00375,148.33174545764922L231.8625,148.4585434607097L232.72125,148.44506294386727L233.57999999999998,148.66536247730255L234.43875,148.6295906679971L235.29749999999999,148.72038536412376L236.15625,148.890022787026L237.01500000000001,148.91103541680744L237.87375000000003,149.039659176554L238.7325,148.96804020064218L239.59125,148.99425127846854L240.45000000000002,149.17880613122668L241.30875,149.3440945335797L242.1675,149.2645010973726L243.02625,149.51272247007915L243.885,149.51856868948255L244.74375,149.43891632386615L245.60250000000002,149.52459229997226L246.46124999999998,149.57279444677488L247.32,149.6870537485395L248.17875,149.70558019024986L249.03750000000002,149.7971989938191L249.89624999999998,149.82970828413963L250.755,149.9159188449383L251.61375,149.98195429699763L252.4725,149.97368805323327L253.33125,150.04850534370968L254.19,150.11963434645108L255.04874999999998,150.05419195634977L255.9075,150.19254102792058L256.76625,150.15818623730115L257.625,150.3746339576585L258.48375,150.38785509467124L259.34250000000003,150.3050117995058L260.20125,150.4268921358245L261.06,150.4771562844515L261.91875,150.48858286270072L262.77750000000003,150.53086139815196L263.63625,150.58303811507565L264.495,150.62727812571185L265.35375,150.61748099837985L266.2125,150.63289510820593L267.07125,150.68468328288623L267.93,150.64533049464225L268.78875,150.66632104473456L269.6475,150.69731052901062L270.50625,150.76861835462705L271.365,150.84797494283745L272.22375,150.75835453953061L273.0825,150.80655555597374L273.94125,150.89690662367002L274.8,150.90639041534493L275.65875,150.98962903491088L276.5175,150.8911675623485L277.37624999999997,150.9547214984894L278.235,151.00824914574622L279.09375,151.0639870979956L279.9525,151.02406965749606L280.81125,151.07930256511483L281.67,151.0740589026894L282.52875,151.0384204758065" style="fill: none;" fill="none"></path></g></g></g></g></g></g><g transform="translate(29, 177)" clip-path="url(#clip_1)"><clipPath id="clip_1"><rect width="300" height="23"></rect></clipPath><g><g><line x1="0" y1="0" x2="0" y2="5" style="visibility: inherit;" fill="rgb(0, 0, 0)" stroke="rgb(204, 204, 204)" stroke-width="1px"></line><line x1="42.9375" y1="0" x2="42.9375" y2="5" style="visibility: inherit;" fill="rgb(0, 0, 0)" stroke="rgb(204, 204, 204)" stroke-width="1px"></line><line x1="85.875" y1="0" x2="85.875" y2="5" style="visibility: inherit;" fill="rgb(0, 0, 0)" stroke="rgb(204, 204, 204)" stroke-width="1px"></line><line x1="128.8125" y1="0" x2="128.8125" y2="5" style="visibility: inherit;" fill="rgb(0, 0, 0)" stroke="rgb(204, 204, 204)" stroke-width="1px"></line><line x1="171.75" y1="0" x2="171.75" y2="5" style="visibility: inherit;" fill="rgb(0, 0, 0)" stroke="rgb(204, 204, 204)" stroke-width="1px"></line><line x1="214.6875" y1="0" x2="214.6875" y2="5" style="visibility: inherit;" fill="rgb(0, 0, 0)" stroke="rgb(204, 204, 204)" stroke-width="1px"></line><line x1="257.625" y1="0" x2="257.625" y2="5" style="visibility: inherit;" fill="rgb(0, 0, 0)" stroke="rgb(204, 204, 204)" stroke-width="1px"></line><line x1="300.5625" y1="0" x2="300.5625" y2="5" style="visibility: inherit;" fill="rgb(0, 0, 0)" stroke="rgb(204, 204, 204)" stroke-width="1px"></line></g><g transform="translate(0, 8)"><text x="0" y="0" dx="0em" dy="0.95em" style="text-anchor: middle; visibility: hidden; font-family: &quot;Helvetica Neue&quot;, sans-serif; font-size: 12px; font-weight: 200;" fill="rgb(50, 49, 63)" stroke="none" stroke-width="1px">-50</text><text x="42.9375" y="0" dx="0em" dy="0.95em" style="text-anchor: middle; visibility: inherit; font-family: &quot;Helvetica Neue&quot;, sans-serif; font-size: 12px; font-weight: 200;" fill="rgb(50, 49, 63)" stroke="none" stroke-width="1px">0</text><text x="85.875" y="0" dx="0em" dy="0.95em" style="text-anchor: middle; visibility: inherit; font-family: &quot;Helvetica Neue&quot;, sans-serif; font-size: 12px; font-weight: 200;" fill="rgb(50, 49, 63)" stroke="none" stroke-width="1px">50</text><text x="128.8125" y="0" dx="0em" dy="0.95em" style="text-anchor: middle; visibility: inherit; font-family: &quot;Helvetica Neue&quot;, sans-serif; font-size: 12px; font-weight: 200;" fill="rgb(50, 49, 63)" stroke="none" stroke-width="1px">100</text><text x="171.75" y="0" dx="0em" dy="0.95em" style="text-anchor: middle; visibility: inherit; font-family: &quot;Helvetica Neue&quot;, sans-serif; font-size: 12px; font-weight: 200;" fill="rgb(50, 49, 63)" stroke="none" stroke-width="1px">150</text><text x="214.6875" y="0" dx="0em" dy="0.95em" style="text-anchor: middle; visibility: inherit; font-family: &quot;Helvetica Neue&quot;, sans-serif; font-size: 12px; font-weight: 200;" fill="rgb(50, 49, 63)" stroke="none" stroke-width="1px">200</text><text x="257.625" y="0" dx="0em" dy="0.95em" style="text-anchor: middle; visibility: inherit; font-family: &quot;Helvetica Neue&quot;, sans-serif; font-size: 12px; font-weight: 200;" fill="rgb(50, 49, 63)" stroke="none" stroke-width="1px">250</text><text x="300.5625" y="0" dx="0em" dy="0.95em" style="text-anchor: middle; visibility: hidden; font-family: &quot;Helvetica Neue&quot;, sans-serif; font-size: 12px; font-weight: 200;" fill="rgb(50, 49, 63)" stroke="none" stroke-width="1px">300</text></g><line x1="0" y1="0" x2="300.5625" y2="0" fill="rgb(0, 0, 0)" stroke="rgb(204, 204, 204)" stroke-width="1px"></line></g></g></g></g></svg>