<svg viewBox="0 0 330 200" xmlns="http://www.w3.org/2000/svg"><g><g><g><g><g><line x1="68.3125" y1="177" x2="63.3125" y2="177" style="visibility: inherit;" fill="rgb(0, 0, 0)" stroke="rgb(204, 204, 204)" stroke-width="1px"></line><line x1="68.3125" y1="162.25" x2="63.3125" y2="162.25" style="visibility: inherit;" fill="rgb(0, 0, 0)" stroke="rgb(204, 204, 204)" stroke-width="1px"></line><line x1="68.3125" y1="147.5" x2="63.3125" y2="147.5" style="visibility: inherit;" fill="rgb(0, 0, 0)" stroke="rgb(204, 204, 204)" stroke-width="1px"></line><line x1="68.3125" y1="132.75" x2="63.3125" y2="132.75" style="visibility: inherit;" fill="rgb(0, 0, 0)" stroke="rgb(204, 204, 204)" stroke-width="1px"></line><line x1="68.3125" y1="118" x2="63.3125" y2="118" style="visibility: inherit;" fill="rgb(0, 0, 0)" stroke="rgb(204, 204, 204)" stroke-width="1px"></line><line x1="68.3125" y1="103.25" x2="63.3125" y2="103.25" style="visibility: inherit;" fill="rgb(0, 0, 0)" stroke="rgb(204, 204, 204)" stroke-width="1px"></line><line x1="68.3125" y1="88.5" x2="63.3125" y2="88.5" style="visibility: inherit;" fill="rgb(0, 0, 0)" stroke="rgb(204, 204, 204)" stroke-width="1px"></line><line x1="68.3125" y1="73.75" x2="63.3125" y2="73.75" style="visibility: inherit;" fill="rgb(0, 0, 0)" stroke="rgb(204, 204, 204)" stroke-width="1px"></line><line x1="68.3125" y1="59" x2="63.3125" y2="59" style="visibility: inherit;" fill="rgb(0, 0, 0)" stroke="rgb(204, 204, 204)" stroke-width="1px"></line><line x1="68.3125" y1="44.25" x2="63.3125" y2="44.25" style="visibility: inherit;" fill="rgb(0, 0, 0)" stroke="rgb(204, 204, 204)" stroke-width="1px"></line><line x1="68.3125" y1="29.5" x2="63.3125" y2="29.5" style="visibility: inherit;" fill="rgb(0, 0, 0)" stroke="rgb(204, 204, 204)" stroke-width="1px"></line><line x1="68.3125" y1="14.75" x2="63.3125" y2="14.75" style="visibility: inherit;" fill="rgb(0, 0, 0)" stroke="rgb(204, 204, 204)" stroke-width="1px"></line><line x1="68.3125" y1="0" x2="63.3125" y2="0" style="visibility: inherit;" fill="rgb(0, 0, 0)" stroke="rgb(204, 204, 204)" stroke-width="1px"></line></g><g transform="translate(58.3125, 0)"><text x="0" y="177" dx="0em" dy="0.3em" style="text-anchor: end; visibility: hidden; font-family: &quot;Helvetica Neue&quot;, sans-serif; font-size: 12px; font-weight: 200;" fill="rgb(50, 49, 63)" stroke="none" stroke-width="1px">-500</text><text x="0" y="162.25" dx="0em" dy="0.3em" style="text-anchor: end; visibility: inherit; font-family: &quot;Helvetica Neue&quot;, sans-serif; font-size: 12px; font-weight: 200;" fill="rgb(50, 49, 63)" stroke="none" stroke-width="1px">0</text><text x="0" y="147.5" dx="0em" dy="0.3em" style="text-anchor: end; visibility: hidden; font-family: &quot;Helvetica Neue&quot;, sans-serif; font-size: 12px; font-weight: 200;" fill="rgb(50, 49, 63)" stroke="none" stroke-width="1px">500</text><text x="0" y="132.75" dx="0em" dy="0.3em" style="text-anchor: end; visibility: inherit; font-family: &quot;Helvetica Neue&quot;, sans-serif; font-size: 12px; font-weight: 200;" fill="rgb(50, 49, 63)" stroke="none" stroke-width="1px">1e+3</text><text x="0" y="118" dx="0em" dy="0.3em" style="text-anchor: end; visibility: hidden; font-family: &quot;Helvetica Neue&quot;, sans-serif; font-size: 12px; font-weight: 200;" fill="rgb(50, 49, 63)" stroke="none" stroke-width="1px">1.5e+3</text><text x="0" y="103.25" dx="0em" dy="0.3em" style="text-anchor: end; visibility: inherit; font-family: &quot;Helvetica Neue&quot;, sans-serif; font-size: 12px; font-weight: 200;" fill="rgb(50, 49, 63)" stroke="none" stroke-width="1px">2e+3</text><text x="0" y="88.5" dx="0em" dy="0.3em" style="text-anchor: end; visibility: hidden; font-family: &quot;Helvetica Neue&quot;, sans-serif; font-size: 12px; font-weight: 200;" fill="rgb(50, 49, 63)" stroke="none" stroke-width="1px">2.5e+3</text><text x="0" y="73.75" dx="0em" dy="0.3em" style="text-anchor: end; visibility: inherit; font-family: &quot;Helvetica Neue&quot;, sans-serif; font-size: 12px; font-weight: 200;" fill="rgb(50, 49, 63)" stroke="none" stroke-width="1px">3e+3</text><text x="0" y="59" dx="0em" dy="0.3em" style="text-anchor: end; visibility: hidden; font-family: &quot;Helvetica Neue&quot;, sans-serif; font-size: 12px; font-weight: 200;" fill="rgb(50, 49, 63)" stroke="none" stroke-width="1px">3.5e+3</text><text x="0" y="44.25" dx="0em" dy="0.3em" style="text-anchor: end; visibility: inherit; font-family: &quot;Helvetica Neue&quot;, sans-serif; font-size: 12px; font-weight: 200;" fill="rgb(50, 49, 63)" stroke="none" stroke-width="1px">4e+3</text><text x="0" y="29.5" dx="0em" dy="0.3em" style="text-anchor: end; visibility: hidden; font-family: &quot;Helvetica Neue&quot;, sans-serif; font-size: 12px; font-weight: 200;" fill="rgb(50, 49, 63)" stroke="none" stroke-width="1px">4.5e+3</text><text x="0" y="14.75" dx="0em" dy="0.3em" style="text-anchor: end; visibility: inherit; font-family: &quot;Helvetica Neue&quot;, sans-serif; font-size: 12px; font-weight: 200;" fill="rgb(50, 49, 63)" stroke="none" stroke-width="1px">5e+3</text><text x="0" y="0" dx="0em" dy="0.3em" style="text-anchor: end; visibility: hidden; font-family: &quot;Helvetica Neue&quot;, sans-serif; font-size: 12px; font-weight: 200;" fill="rgb(50, 49, 63)" stroke="none" stroke-width="1px">5.5e+3</text></g><line x1="68.3125" y1="0" x2="68.3125" y2="177" fill="rgb(0, 0, 0)" stroke="rgb(204, 204, 204)" stroke-width="1px"></line></g></g><g transform="translate(68, 0)" clip-path="url(#clip_0)"><clipPath id="clip_0"><rect width="261" height="177"></rect></clipPath><g><g><g><line x1="0" y1="0" x2="0" y2="177" fill="rgb(0, 0, 0)" stroke="rgb(60, 60, 60)" stroke-width="1px" opacity="0.25"></line><line x1="29.076388888888886" y1="0" x2="29.076388888888886" y2="177" fill="rgb(0, 0, 0)" stroke="rgb(60, 60, 60)" stroke-width="1px" opacity="0.25"></line><line x1="58.15277777777777" y1="0" x2="58.15277777777777" y2="177" fill="rgb(0, 0, 0)" stroke="rgb(60, 60, 60)" stroke-width="1px" opacity="0.25"></line><line x1="87.22916666666666" y1="0" x2="87.22916666666666" y2="177" fill="rgb(0, 0, 0)" stroke="rgb(60, 60, 60)" stroke-width="1px" opacity="0.25"></line><line x1="116.30555555555554" y1="0" x2="116.30555555555554" y2="177" fill="rgb(0, 0, 0)" stroke="rgb(60, 60, 60)" stroke-width="1px" opacity="0.25"></line><line x1="145.38194444444446" y1="0" x2="145.38194444444446" y2="177" fill="rgb(0, 0, 0)" stroke="rgb(60, 60, 60)" stroke-width="1px" opacity="0.25"></line><line x1="174.45833333333331" y1="0" x2="174.45833333333331" y2="177" fill="rgb(0, 0, 0)" stroke="rgb(60, 60, 60)" stroke-width="1px" opacity="0.25"></line><line x1="203.53472222222223" y1="0" x2="203.53472222222223" y2="177" fill="rgb(0, 0, 0)" stroke="rgb(60, 60, 60)" stroke-width="1px" opacity="0.25"></line><line x1="232.6111111111111" y1="0" x2="232.6111111111111" y2="177" fill="rgb(0, 0, 0)" stroke="rgb(60, 60, 60)" stroke-width="1px" opacity="0.25"></line><line x1="261.6875" y1="0" x2="261.6875" y2="177" fill="rgb(0, 0, 0)" stroke="rgb(60, 60, 60)" stroke-width="1px" opacity="0.25"></line></g><g><line x1="0" y1="177" x2="261.6875" y2="177" fill="rgb(0, 0, 0)" stroke="rgb(60, 60, 60)" stroke-width="1px" opacity="0.25"></line><line x1="0" y1="162.25" x2="261.6875" y2="162.25" fill="rgb(0, 0, 0)" stroke="rgb(60, 60, 60)" stroke-width="1px" opacity="0.25"></line><line x1="0" y1="147.5" x2="261.6875" y2="147.5" fill="rgb(0, 0, 0)" stroke="rgb(60, 60, 60)" stroke-width="1px" opacity="0.25"></line><line x1="0" y1="132.75" x2="261.6875" y2="132.75" fill="rgb(0, 0, 0)" stroke="rgb(60, 60, 60)" stroke-width="1px" opacity="0.25"></line><line x1="0" y1="118" x2="261.6875" y2="118" fill="rgb(0, 0, 0)" stroke="rgb(60, 60, 60)" stroke-width="1px" opacity="0.25"></line><line x1="0" y1="103.25" x2="261.6875" y2="103.25" fill="rgb(0, 0, 0)" stroke="rgb(60, 60, 60)" stroke-width="1px" opacity="0.25"></line><line x1="0" y1="88.5" x2="261.6875" y2="88.5" fill="rgb(0, 0, 0)" stroke="rgb(60, 60, 60)" stroke-width="1px" opacity="0.25"></line><line x1="0" y1="73.75" x2="261.6875" y2="73.75" fill="rgb(0, 0, 0)" stroke="rgb(60, 60, 60)" stroke-width="1px" opacity="0.25"></line><line x1="0" y1="59" x2="261.6875" y2="59" fill="rgb(0, 0, 0)" stroke="rgb(60, 60, 60)" stroke-width="1px" opacity="0.25"></line><line x1="0" y1="44.25" x2="261.6875" y2="44.25" fill="rgb(0, 0, 0)" stroke="rgb(60, 60, 60)" stroke-width="1px" opacity="0.25"></line><line x1="0" y1="29.5" x2="261.6875" y2="29.5" fill="rgb(0, 0, 0)" stroke="rgb(60, 60, 60)" stroke-width="1px" opacity="0.25"></line><line x1="0" y1="14.75" x2="261.6875" y2="14.75" fill="rgb(0, 0, 0)" stroke="rgb(60, 60, 60)" stroke-width="1px" opacity="0.25"></line><line x1="0" y1="0" x2="261.6875" y2="0" fill="rgb(0, 0, 0)" stroke="rgb(60, 60, 60)" stroke-width="1px" opacity="0.25"></line></g></g></g><g><g><line x1="0" y1="162.25" x2="261.6875" y2="162.25" fill="rgb(0, 0, 0)" stroke="rgb(153, 153, 153)" stroke-width="1.5px"></line></g></g><g><g><line x1="29.076388888888886" y1="0" x2="29.076388888888886" y2="177" fill="rgb(0, 0, 0)" stroke="rgb(153, 153, 153)" stroke-width="1.5px"></line></g></g><g><g><g><g><g><path stroke="rgb(204, 51, 17)" stroke-width="2px" d="M29.076388888888886,11.629813232421895L29.657916666666665,13.180966949462885L30.239444444444445,16.425131536989795L30.82097222222222,18.972620952830596L31.4025,22.63211521675487L31.984027777777776,28.566890112593143L32.565555555555555,36.536746761486114L33.147083333333335,48.60774535961181L33.72861111111111,65.83754493316654L34.31013888888889,84.42931326766706L34.891666666666666,100.5683873852316L35.473194444444445,113.15908864626525L36.054722222222225,122.19853285219321L36.636250000000004,128.78160792642905L37.217777777777776,133.42707530322372L37.79930555555555,136.42350825762713L38.380833333333335,138.66921928253515L38.96236111111111,140.75062456095486L39.54388888888889,142.17770234636183L40.125416666666666,143.46204072854448L40.706944444444446,144.47665017356792L41.28847222222222,145.44616628060427L41.87,146.07576532399258L42.45152777777778,146.80803964172958L43.033055555555556,147.51599177676997L43.61458333333333,147.98766908232722L44.196111111111115,148.3287974284207L44.77763888888889,148.90918856078173L45.35916666666667,149.34594933255264L45.94069444444444,149.70347199180293L46.522222222222226,150.01652174368613L47.10375,150.40151831977218L47.68527777777778,150.78105516281897L48.26680555555556,151.05324188234533L48.848333333333336,151.34149318123744L49.42986111111111,151.64215677610144L50.01138888888889,151.81424041071998L50.59291666666667,152.09944999089922L51.17444444444445,152.4906643923838L51.75597222222222,152.64230760780094L52.337500000000006,152.93296662057776L52.91902777777778,153.17246728935643L53.50055555555556,153.29865422618937L54.08208333333333,153.54442567784605L54.663611111111116,153.6372228017368L55.24513888888889,153.88308208803983L55.82666666666667,154.12058202260818L56.40819444444445,154.31860262543458L56.98972222222222,154.5803400023883L57.57125,154.80654321957445L58.15277777777777,154.9059497568184L58.73430555555556,155.01694139644977L59.31583333333333,155.2043635835977L59.89736111111111,155.32981947462167L60.47888888888889,155.44532763142834L61.06041666666667,155.5695562895504L61.64194444444444,155.75924899589825L62.22347222222222,155.92667723262198L62.805,156.1146680064433L63.38652777777778,156.22748767825564L63.96805555555555,156.36084164870144L64.54958333333333,156.52236164510467L65.13111111111111,156.59765135290752L65.71263888888889,156.72229026242812L66.29416666666667,156.85515209324788L66.87569444444443,156.99428853683253L67.45722222222221,157.12641047256338L68.03875000000001,157.17303305416792L68.62027777777779,157.30665203770093L69.20180555555555,157.4061887445932L69.78333333333333,157.52134012358698L70.36486111111111,157.6565664795477L70.94638888888889,157.7791812665128L71.52791666666666,157.96504693739791L72.10944444444445,158.01801323323954L72.69097222222223,158.08842245410386L73.27250000000001,158.21537137407364L73.85402777777777,158.29596752659262L74.43555555555555,158.3104987074839L75.01708333333333,158.35816879541318L75.5986111111111,158.44377450265074L76.18013888888889,158.53921507543077L76.76166666666667,158.68801674514862L77.34319444444445,158.8176247367254L77.92472222222221,158.85424275737947L78.50625,158.96172143720355L79.08777777777777,159.03683919624547L79.66930555555555,159.06961614439524L80.25083333333333,159.16649159520648L80.83236111111111,159.2389468003856L81.41388888888889,159.29662156991643L81.99541666666667,159.36896433904457L82.57694444444444,159.41435716330224L83.15847222222222,159.48900451099405L83.74,159.55236744048315L84.32152777777779,159.62663883282016L84.90305555555555,159.66849591108127L85.48458333333333,159.7320493746517L86.06611111111111,159.81229592575536L86.64763888888889,159.85552073782625L87.22916666666666,159.9347115515825L87.81069444444444,159.96612221598366L88.39222222222223,160.03648702282752L88.97375000000001,160.10497376276876L89.55527777777777,160.1655705751051L90.13680555555555,160.21546600076374L90.71833333333333,160.274116511469L91.29986111111111,160.3016068209439L91.88138888888888,160.37067817566572L92.46291666666667,160.41536807712183L93.04444444444445,160.45077116518178L93.62597222222222,160.51543868711568L94.2075,160.56197813383923L94.78902777777778,160.61198574962725L95.37055555555555,160.65331871341772L95.95208333333332,160.69529417528574L96.53361111111111,160.68596801747003L97.1151388888889,160.73254824212265L97.69666666666667,160.79540559551162L98.27819444444444,160.82774270346786L98.85972222222222,160.86355051710024L99.44125,160.9185301019777L100.02277777777778,160.94030995953256L100.60430555555556,160.96813201530082L101.18583333333333,160.99910265278402L101.76736111111111,161.03059241060961L102.3488888888889,161.0722753033909L102.93041666666666,161.09118207351403L103.51194444444444,161.13034979052566L104.09347222222222,161.1590216083242L104.67500000000001,161.20298716238221L105.25652777777778,161.2404017166798L105.83805555555556,161.26907875469357L106.41958333333334,161.27711243378536L107.00111111111111,161.29686913187157L107.58263888888888,161.3259831444672L108.16416666666666,161.355279752937L108.74569444444445,161.3708805257124L109.32722222222223,161.41177125251545L109.90875,161.43535297939928L110.49027777777778,161.45953256019206L111.07180555555556,161.50316345625075L111.65333333333334,161.51328448885053L112.2348611111111,161.5196255009733L112.8163888888889,161.5417070228435L113.39791666666667,161.55844938307865L113.97944444444444,161.59185105150857L114.56097222222222,161.6087774834747L115.1425,161.61739944258423L115.72402777777778,161.63616291460448L116.30555555555554,161.653609961516L116.88708333333334,161.6781910245933L117.46861111111112,161.69616275890576L118.0501388888889,161.71824358468L118.63166666666666,161.73473466742482L119.21319444444444,161.74700564344195L119.79472222222222,161.77152701010388L120.37625,161.7839176098709L120.95777777777778,161.80207650891572L121.53930555555556,161.80289122624177L122.12083333333334,161.81927830416546L122.70236111111112,161.82991999363057L123.28388888888888,161.84536942877264L123.86541666666666,161.85807997254068L124.44694444444444,161.86887635819636L125.02847222222223,161.88629847307516L125.61,161.89575430071062L126.19152777777778,161.91548698746985L126.77305555555556,161.92501594774618L127.35458333333334,161.93313023267206L127.9361111111111,161.9473819089056L128.51763888888888,161.953529175098L129.09916666666666,161.96262688845113L129.68069444444444,161.97489991923402L130.26222222222222,161.98052408125537L130.84375,161.98545880014024L131.42527777777778,162.00208139246894L132.00680555555556,162.00621581164714L132.58833333333334,162.0198248234255L133.1698611111111,162.02625540736096L133.75138888888887,162.0340928603338L134.33291666666665,162.04180943686526L134.91444444444443,162.05147318376757L135.49597222222224,162.05829490221532L136.07750000000001,162.0701911572754L136.6590277777778,162.07396045986053L137.24055555555557,162.0817116933777L137.82208333333332,162.0865826954433L138.4036111111111,162.09066607482364L138.98513888888888,162.09146109375436L139.56666666666666,162.09413187390018L140.14819444444444,162.1017937514153L140.72972222222222,162.1076172181229L141.31125,162.10911081139207L141.89277777777778,162.11258205614067L142.47430555555553,162.11889384828552L143.0558333333333,162.12708417364684L143.63736111111112,162.13016060283618L144.2188888888889,162.1372431649854L144.80041666666668,162.13960869901717L145.38194444444446,162.14398994799458L145.96347222222224,162.14710225412847L146.54500000000002,162.15695282829762L147.12652777777777,162.16065964453793L147.70805555555555,162.1597481185995L148.28958333333333,162.16249783737675L148.8711111111111,162.16752440437804L149.45263888888888,162.16938548851687L150.03416666666666,162.17036619563507L150.61569444444444,162.175044258616L151.1972222222222,162.1775174990783L151.77875,162.18081311847507L152.36027777777778,162.1843940512761L152.94180555555556,162.18745362224723L153.52333333333334,162.1935304638776L154.10486111111112,162.19429560257393L154.6863888888889,162.1959248309457L155.26791666666668,162.19674573530696L155.84944444444443,162.19573900443282L156.4309722222222,162.19911216248252L157.0125,162.20062504940736L157.59402777777777,162.20195905590955L158.17555555555555,162.20583429189267L158.75708333333333,162.2078173525318L159.3386111111111,162.20833322396186L159.9201388888889,162.21168622282926L160.50166666666667,162.21319631655086L161.08319444444444,162.21521362349432L161.66472222222222,162.21461285019544L162.24625,162.21495271075145L162.82777777777778,162.21707658059822L163.40930555555556,162.2197411879386L163.99083333333334,162.2204714224747L164.57236111111112,162.22315724541016L165.15388888888887,162.22473169030707L165.73541666666665,162.22408350505805L166.31694444444443,162.2241871385716L166.8984722222222,162.22493978808777L167.48,162.2263543662337L168.0615277777778,162.22772077668353L168.64305555555558,162.22919956467535L169.22458333333333,162.22991303992262L169.8061111111111,162.2309677752852L170.3876388888889,162.23199815258977L170.96916666666667,162.2325187603211L171.55069444444445,162.2339359123752L172.13222222222223,162.23548398418103L172.71375,162.23471133341118L173.29527777777778,162.2360213110371L173.87680555555553,162.23552164624473L174.45833333333331,162.23716000494565L175.0398611111111,162.2383212290299L175.62138888888887,162.23790812682464L176.20291666666668,162.23922069641563L176.78444444444446,162.2396480706132L177.36597222222224,162.24026206703167L177.94750000000002,162.24069589400995L178.52902777777777,162.24121977863138L179.11055555555555,162.24165572056427L179.69208333333333,162.24133995615992L180.2736111111111,162.24099268395634L180.8551388888889,162.24164310685356L181.43666666666667,162.241378733829L182.01819444444445,162.24141005823932L182.59972222222223,162.24154034094764L183.18124999999998,162.24218785728664L183.76277777777776,162.2424966544637L184.34430555555556,162.24258631915026L184.92583333333334,162.2428937932442L185.50736111111112,162.24384171106163L186.0888888888889,162.24412518423046L186.67041666666668,162.24488285864737L187.25194444444443,162.24458101053446L187.8334722222222,162.24471657200996L188.415,162.2451746137878L188.99652777777777,162.2458167463148L189.57805555555555,162.24553559306588L190.15958333333333,162.24577768011883L190.7411111111111,162.245705600664L191.3226388888889,162.24565341395734" style="fill: none;" fill="none"></path></g></g></g></g><g opacity="0.2"><g><g><g><path stroke="rgb(204, 51, 17)" stroke-width="2px" d="M29.076388888888886,11.629813232421895L29.657916666666665,14.111659179687507L30.239444444444445,19.53952954101561L30.82097222222222,21.96846850585939L31.4025,27.40995092773437L31.984027777777776,36.77682031250001L32.565555555555555,47.93376928710936L33.147083333333335,66.20737719726563L33.72861111111111,91.24815258789062L34.31013888888889,112.03592248535156L34.891666666666666,124.63061834716797L35.473194444444445,131.9766224975586L36.054722222222225,135.72818380737306L36.636250000000004,138.64332360839845L37.217777777777776,140.38981579589844L37.79930555555555,140.9160443725586L38.380833333333335,142.03683551025392L38.96236111111111,143.87220401000977L39.54388888888889,144.31810162353514L40.125416666666666,145.38843090820313L40.706944444444446,145.99850869750975L41.28847222222222,146.90040853881837L41.87,147.02015145874023L42.45152777777778,147.90644244384765L43.033055555555556,148.57791494750975L43.61458333333333,148.6951830291748L44.196111111111115,148.84048907470702L44.77763888888889,149.77977436828613L45.35916666666667,150.00109008789062L45.94069444444444,150.23975578308105L46.522222222222226,150.4860962677002L47.10375,150.9790131072998L47.68527777777778,151.35036038208008L48.26680555555556,151.4615219421387L48.848333333333336,151.7738701171875L49.42986111111111,152.09315216064454L50.01138888888889,152.07236585998535L50.59291666666667,152.5272643585205L51.17444444444445,153.07748599243163L51.75597222222222,152.8697724304199L52.337500000000006,153.36895513916016L52.91902777777778,153.53171829223632L53.50055555555556,153.48793463134766L54.08208333333333,153.91308285522462L54.663611111111116,153.77641848754882L55.24513888888889,154.25187101745607L55.82666666666667,154.47683192443847L56.40819444444445,154.61563352966309L56.98972222222222,154.97294606781006L57.57125,155.1458480453491L58.15277777777777,155.0550595626831L58.73430555555556,155.18342885589598L59.31583333333333,155.48549686431886L59.89736111111111,155.51800331115723L60.47888888888889,155.6185898666382L61.06041666666667,155.7558992767334L61.64194444444444,156.04378805541992L62.22347222222222,156.17781958770752L62.805,156.39665416717529L63.38652777777778,156.39671718597413L63.96805555555555,156.5608726043701L64.54958333333333,156.76464163970948L65.13111111111111,156.7105859146118L65.71263888888889,156.90924862670897L66.29416666666667,157.05444483947753L66.87569444444443,157.20299320220948L67.45722222222221,157.32459337615967L68.03875000000001,157.2429669265747L68.62027777777779,157.5070805130005L69.20180555555555,157.55549380493164L69.78333333333333,157.69406719207763L70.36486111111111,157.85940601348878L70.94638888888889,157.96310344696045L71.52791666666666,158.24384544372558L72.10944444444445,158.09746267700194L72.69097222222223,158.1940362854004L73.27250000000001,158.4057947540283L73.85402777777777,158.4168617553711L74.43555555555555,158.3322954788208L75.01708333333333,158.42967392730714L75.5986111111111,158.57218306350708L76.18013888888889,158.68237593460083L76.76166666666667,158.91121924972535L77.34319444444445,159.0120367240906L77.92472222222221,158.9091697883606L78.50625,159.1229394569397L79.08777777777777,159.14951583480834L79.66930555555555,159.11878156661987L80.25083333333333,159.31180477142334L80.83236111111111,159.3476296081543L81.41388888888889,159.38313372421266L81.99541666666667,159.47747849273682L82.57694444444444,159.4824463996887L83.15847222222222,159.60097553253175L83.74,159.6474118347168L84.32152777777779,159.7380459213257L84.90305555555555,159.7312815284729L85.48458333333333,159.82737957000734L86.06611111111111,159.93266575241088L86.64763888888889,159.92035795593262L87.22916666666666,160.0534977722168L87.81069444444444,160.01323821258546L88.39222222222223,160.14203423309326L88.97375000000001,160.20770387268067L89.55527777777777,160.2564657936096L90.13680555555555,160.29030913925172L90.71833333333333,160.36209227752687L91.29986111111111,160.34284228515625L91.88138888888888,160.4742852077484L92.46291666666667,160.48240292930603L93.04444444444445,160.50387579727172L93.62597222222222,160.61243997001648L94.2075,160.63178730392457L94.78902777777778,160.68699717330932L95.37055555555555,160.7153181591034L95.95208333333332,160.75825736808775L96.53361111111111,160.67197878074646L97.1151388888889,160.80241857910156L97.69666666666667,160.8896916255951L98.27819444444444,160.87624836540223L98.85972222222222,160.91726223754884L99.44125,161.00099947929382L100.02277777777778,160.97297974586488L100.60430555555556,161.00986509895324L101.18583333333333,161.0455586090088L101.76736111111111,161.07782704734802L102.3488888888889,161.13479964256285L102.93041666666666,161.11954222869872L103.51194444444444,161.18910136604308L104.09347222222222,161.20202933502196L104.67500000000001,161.26893549346923L105.25652777777778,161.29652354812623L105.83805555555556,161.31209431171416L106.41958333333334,161.28916295242308L107.00111111111111,161.32650417900086L107.58263888888888,161.3696541633606L108.16416666666666,161.39922466564178L108.74569444444445,161.3942816848755L109.32722222222223,161.47310734272003L109.90875,161.47072556972503L110.49027777777778,161.49580193138124L111.07180555555556,161.56860980033875L111.65333333333334,161.52846603775023L112.2348611111111,161.52913701915742L112.8163888888889,161.5748293056488L113.39791666666667,161.5835629234314L113.97944444444444,161.64195355415345L114.56097222222222,161.63416713142394L115.1425,161.63033238124848L115.72402777777778,161.66430812263488L116.30555555555554,161.67978053188324L116.88708333333334,161.71506261920928L117.46861111111112,161.72312036037445L118.0501388888889,161.75136482334136L118.63166666666666,161.75947129154204L119.21319444444444,161.76541210746765L119.79472222222222,161.80830906009675L120.37625,161.80250350952147L120.95777777777778,161.8293148574829L121.53930555555556,161.80411330223083L122.12083333333334,161.84385892105104L122.70236111111112,161.84588252782822L123.28388888888888,161.86854358148574L123.86541666666666,161.87714578819276L124.44694444444444,161.88507093667985L125.02847222222223,161.91243164539338L125.61,161.90993804216384L126.19152777777778,161.94508601760865L126.77305555555556,161.9393093881607L127.35458333333334,161.9453016600609L127.9361111111111,161.96875942325593L128.51763888888888,161.9627500743866L129.09916666666666,161.97627345848085L129.68069444444444,161.99330946540832L130.26222222222222,161.9889603242874L130.84375,161.99286087846755L131.42527777777778,162.027015280962L132.00680555555556,162.01241744041442L132.58833333333334,162.04023834109307L133.1698611111111,162.03590128326417L133.75138888888887,162.045849039793L134.33291666666665,162.05338430166245L134.91444444444443,162.065968804121L135.49597222222224,162.068527479887L136.07750000000001,162.0880355398655L136.6590277777778,162.07961441373826L137.24055555555557,162.0933385436535L137.82208333333332,162.09388919854163L138.4036111111111,162.0967911438942L138.98513888888888,162.0926536221504L139.56666666666666,162.09813804411888L140.14819444444444,162.113286567688L140.72972222222222,162.11635241818428L141.31125,162.11135120129586L141.89277777777778,162.11778892326356L142.47430555555553,162.12836153650284L143.0558333333333,162.13936966168882L143.63736111111112,162.13477524662017L144.2188888888889,162.14786700820923L144.80041666666668,162.14315700006486L145.38194444444446,162.1505618214607L145.96347222222224,162.1517707133293L146.54500000000002,162.17172868955134L147.12652777777777,162.1662198688984L147.70805555555555,162.15838082969188L148.28958333333333,162.1666224155426L148.8711111111111,162.17506425487994L149.45263888888888,162.17217711472512L150.03416666666666,162.17183725631236L150.61569444444444,162.18206135308742L151.1972222222222,162.18122735977173L151.77875,162.18575654757024L152.36027777777778,162.1897654504776L152.94180555555556,162.19204297870397L153.52333333333334,162.20264572632314L154.10486111111112,162.1954433106184L154.6863888888889,162.1983686735034L155.26791666666668,162.19797709184886L155.84944444444443,162.19422890812157L156.4309722222222,162.2041718995571L157.0125,162.2028943797946L157.59402777777777,162.20396006566287L158.17555555555555,162.21164714586735L158.75708333333333,162.2107919434905L159.3386111111111,162.20910703110695L159.9201388888889,162.21671572113036L160.50166666666667,162.2154614571333L161.08319444444444,162.2182395839095L161.66472222222222,162.21371169024707L162.24625,162.21546250158548L162.82777777777778,162.22026238536836L163.40930555555556,162.22373809894918L163.99083333333334,162.22156677427887L164.57236111111112,162.22718597981333L165.15388888888887,162.22709335765242L165.73541666666665,162.22311122718455L166.31694444444443,162.22434258884192L166.8984722222222,162.226068762362L167.48,162.22847623345257L168.0615277777778,162.22977039235832L168.64305555555558,162.23141774666308L169.22458333333333,162.23098325279355L169.8061111111111,162.23254987832905L170.3876388888889,162.23354371854663L170.96916666666667,162.23329967191816L171.55069444444445,162.2360616404563L172.13222222222223,162.23780609188975L172.71375,162.2335523572564L173.29527777777778,162.23798627747595L173.87680555555553,162.2347721490562L174.45833333333331,162.239617542997L175.0398611111111,162.24006306515633L175.62138888888887,162.2372884735167L176.20291666666668,162.24118955080212L176.78444444444446,162.2402891319096L177.36597222222224,162.24118306165934L177.94750000000002,162.24134663447737L178.52902777777777,162.24200560556352L179.11055555555555,162.24230963346363L179.69208333333333,162.24086630955338L180.2736111111111,162.24047177565097L180.8551388888889,162.24261874119938L181.43666666666667,162.2409821742922L182.01819444444445,162.24145704485477L182.59972222222223,162.2417357650101L183.18124999999998,162.24315913179518L183.76277777777776,162.2429598502293L184.34430555555556,162.2427208161801L184.92583333333334,162.2433550043851L185.50736111111112,162.24526358778775L186.0888888888889,162.24455039398373L186.67041666666668,162.24601937027276L187.25194444444443,162.24412823836505L187.8334722222222,162.24491991422326L188.415,162.24586167645455L188.99652777777777,162.24677994510532L189.57805555555555,162.2451138631925L190.15958333333333,162.24614081069828L190.7411111111111,162.24559748148172L191.3226388888889,162.24557513389738" style="fill: none;" fill="none"></path></g></g></g></g></g></g><g transform="translate(68, 177)" clip-path="url(#clip_1)"><clipPath id="clip_1"><rect width="261" height="23"></rect></clipPath><g><g><line x1="0" y1="0" x2="0" y2="5" style="visibility: inherit;" fill="rgb(0, 0, 0)" stroke="rgb(204, 204, 204)" stroke-width="1px"></line><line x1="29.076388888888886" y1="0" x2="29.076388888888886" y2="5" style="visibility: inherit;" fill="rgb(0, 0, 0)" stroke="rgb(204, 204, 204)" stroke-width="1px"></line><line x1="58.15277777777777" y1="0" x2="58.15277777777777" y2="5" style="visibility: inherit;" fill="rgb(0, 0, 0)" stroke="rgb(204, 204, 204)" stroke-width="1px"></line><line x1="87.22916666666666" y1="0" x2="87.22916666666666" y2="5" style="visibility: inherit;" fill="rgb(0, 0, 0)" stroke="rgb(204, 204, 204)" stroke-width="1px"></line><line x1="116.30555555555554" y1="0" x2="116.30555555555554" y2="5" style="visibility: inherit;" fill="rgb(0, 0, 0)" stroke="rgb(204, 204, 204)" stroke-width="1px"></line><line x1="145.38194444444446" y1="0" x2="145.38194444444446" y2="5" style="visibility: inherit;" fill="rgb(0, 0, 0)" stroke="rgb(204, 204, 204)" stroke-width="1px"></line><line x1="174.45833333333331" y1="0" x2="174.45833333333331" y2="5" style="visibility: inherit;" fill="rgb(0, 0, 0)" stroke="rgb(204, 204, 204)" stroke-width="1px"></line><line x1="203.53472222222223" y1="0" x2="203.53472222222223" y2="5" style="visibility: inherit;" fill="rgb(0, 0, 0)" stroke="rgb(204, 204, 204)" stroke-width="1px"></line><line x1="232.6111111111111" y1="0" x2="232.6111111111111" y2="5" style="visibility: inherit;" fill="rgb(0, 0, 0)" stroke="rgb(204, 204, 204)" stroke-width="1px"></line><line x1="261.6875" y1="0" x2="261.6875" y2="5" style="visibility: inherit;" fill="rgb(0, 0, 0)" stroke="rgb(204, 204, 204)" stroke-width="1px"></line></g><g transform="translate(0, 8)"><text x="0" y="0" dx="0em" dy="0.95em" style="text-anchor: middle; visibility: hidden; font-family: &quot;Helvetica Neue&quot;, sans-serif; font-size: 12px; font-weight: 200;" fill="rgb(50, 49, 63)" stroke="none" stroke-width="1px">-50</text><text x="29.076388888888886" y="0" dx="0em" dy="0.95em" style="text-anchor: middle; visibility: inherit; font-family: &quot;Helvetica Neue&quot;, sans-serif; font-size: 12px; font-weight: 200;" fill="rgb(50, 49, 63)" stroke="none" stroke-width="1px">0</text><text x="58.15277777777777" y="0" dx="0em" dy="0.95em" style="text-anchor: middle; visibility: inherit; font-family: &quot;Helvetica Neue&quot;, sans-serif; font-size: 12px; font-weight: 200;" fill="rgb(50, 49, 63)" stroke="none" stroke-width="1px">50</text><text x="87.22916666666666" y="0" dx="0em" dy="0.95em" style="text-anchor: middle; visibility: inherit; font-family: &quot;Helvetica Neue&quot;, sans-serif; font-size: 12px; font-weight: 200;" fill="rgb(50, 49, 63)" stroke="none" stroke-width="1px">100</text><text x="116.30555555555554" y="0" dx="0em" dy="0.95em" style="text-anchor: middle; visibility: inherit; font-family: &quot;Helvetica Neue&quot;, sans-serif; font-size: 12px; font-weight: 200;" fill="rgb(50, 49, 63)" stroke="none" stroke-width="1px">150</text><text x="145.38194444444446" y="0" dx="0em" dy="0.95em" style="text-anchor: middle; visibility: inherit; font-family: &quot;Helvetica Neue&quot;, sans-serif; font-size: 12px; font-weight: 200;" fill="rgb(50, 49, 63)" stroke="none" stroke-width="1px">200</text><text x="174.45833333333331" y="0" dx="0em" dy="0.95em" style="text-anchor: middle; visibility: inherit; font-family: &quot;Helvetica Neue&quot;, sans-serif; font-size: 12px; font-weight: 200;" fill="rgb(50, 49, 63)" stroke="none" stroke-width="1px">250</text><text x="203.53472222222223" y="0" dx="0em" dy="0.95em" style="text-anchor: middle; visibility: inherit; font-family: &quot;Helvetica Neue&quot;, sans-serif; font-size: 12px; font-weight: 200;" fill="rgb(50, 49, 63)" stroke="none" stroke-width="1px">300</text><text x="232.6111111111111" y="0" dx="0em" dy="0.95em" style="text-anchor: middle; visibility: inherit; font-family: &quot;Helvetica Neue&quot;, sans-serif; font-size: 12px; font-weight: 200;" fill="rgb(50, 49, 63)" stroke="none" stroke-width="1px">350</text><text x="261.6875" y="0" dx="0em" dy="0.95em" style="text-anchor: middle; visibility: hidden; font-family: &quot;Helvetica Neue&quot;, sans-serif; font-size: 12px; font-weight: 200;" fill="rgb(50, 49, 63)" stroke="none" stroke-width="1px">400</text></g><line x1="0" y1="0" x2="261.6875" y2="0" fill="rgb(0, 0, 0)" stroke="rgb(204, 204, 204)" stroke-width="1px"></line></g></g></g></g></svg>