<svg viewBox="0 0 330 200" xmlns="http://www.w3.org/2000/svg"><g><g><g><g><g><line x1="29.4375" y1="177" x2="24.4375" y2="177" style="visibility: inherit;" fill="rgb(0, 0, 0)" stroke="rgb(204, 204, 204)" stroke-width="1px"></line><line x1="29.4375" y1="159.3" x2="24.4375" y2="159.3" style="visibility: inherit;" fill="rgb(0, 0, 0)" stroke="rgb(204, 204, 204)" stroke-width="1px"></line><line x1="29.4375" y1="141.6" x2="24.4375" y2="141.6" style="visibility: inherit;" fill="rgb(0, 0, 0)" stroke="rgb(204, 204, 204)" stroke-width="1px"></line><line x1="29.4375" y1="123.9" x2="24.4375" y2="123.9" style="visibility: inherit;" fill="rgb(0, 0, 0)" stroke="rgb(204, 204, 204)" stroke-width="1px"></line><line x1="29.4375" y1="106.2" x2="24.4375" y2="106.2" style="visibility: inherit;" fill="rgb(0, 0, 0)" stroke="rgb(204, 204, 204)" stroke-width="1px"></line><line x1="29.4375" y1="88.5" x2="24.4375" y2="88.5" style="visibility: inherit;" fill="rgb(0, 0, 0)" stroke="rgb(204, 204, 204)" stroke-width="1px"></line><line x1="29.4375" y1="70.8" x2="24.4375" y2="70.8" style="visibility: inherit;" fill="rgb(0, 0, 0)" stroke="rgb(204, 204, 204)" stroke-width="1px"></line><line x1="29.4375" y1="53.10000000000001" x2="24.4375" y2="53.10000000000001" style="visibility: inherit;" fill="rgb(0, 0, 0)" stroke="rgb(204, 204, 204)" stroke-width="1px"></line><line x1="29.4375" y1="35.400000000000006" x2="24.4375" y2="35.400000000000006" style="visibility: inherit;" fill="rgb(0, 0, 0)" stroke="rgb(204, 204, 204)" stroke-width="1px"></line><line x1="29.4375" y1="17.69999999999999" x2="24.4375" y2="17.69999999999999" style="visibility: inherit;" fill="rgb(0, 0, 0)" stroke="rgb(204, 204, 204)" stroke-width="1px"></line><line x1="29.4375" y1="0" x2="24.4375" y2="0" style="visibility: inherit;" fill="rgb(0, 0, 0)" stroke="rgb(204, 204, 204)" stroke-width="1px"></line></g><g transform="translate(19.4375, 0)"><text x="0" y="177" dx="0em" dy="0.3em" style="text-anchor: end; visibility: hidden; font-family: &quot;Helvetica Neue&quot;, sans-serif; font-size: 12px; font-weight: 200;" fill="rgb(50, 49, 63)" stroke="none" stroke-width="1px">-2</text><text x="0" y="159.3" dx="0em" dy="0.3em" style="text-anchor: end; visibility: inherit; font-family: &quot;Helvetica Neue&quot;, sans-serif; font-size: 12px; font-weight: 200;" fill="rgb(50, 49, 63)" stroke="none" stroke-width="1px">0</text><text x="0" y="141.6" dx="0em" dy="0.3em" style="text-anchor: end; visibility: hidden; font-family: &quot;Helvetica Neue&quot;, sans-serif; font-size: 12px; font-weight: 200;" fill="rgb(50, 49, 63)" stroke="none" stroke-width="1px">2</text><text x="0" y="123.9" dx="0em" dy="0.3em" style="text-anchor: end; visibility: inherit; font-family: &quot;Helvetica Neue&quot;, sans-serif; font-size: 12px; font-weight: 200;" fill="rgb(50, 49, 63)" stroke="none" stroke-width="1px">4</text><text x="0" y="106.2" dx="0em" dy="0.3em" style="text-anchor: end; visibility: hidden; font-family: &quot;Helvetica Neue&quot;, sans-serif; font-size: 12px; font-weight: 200;" fill="rgb(50, 49, 63)" stroke="none" stroke-width="1px">6</text><text x="0" y="88.5" dx="0em" dy="0.3em" style="text-anchor: end; visibility: inherit; font-family: &quot;Helvetica Neue&quot;, sans-serif; font-size: 12px; font-weight: 200;" fill="rgb(50, 49, 63)" stroke="none" stroke-width="1px">8</text><text x="0" y="70.8" dx="0em" dy="0.3em" style="text-anchor: end; visibility: hidden; font-family: &quot;Helvetica Neue&quot;, sans-serif; font-size: 12px; font-weight: 200;" fill="rgb(50, 49, 63)" stroke="none" stroke-width="1px">10</text><text x="0" y="53.10000000000001" dx="0em" dy="0.3em" style="text-anchor: end; visibility: inherit; font-family: &quot;Helvetica Neue&quot;, sans-serif; font-size: 12px; font-weight: 200;" fill="rgb(50, 49, 63)" stroke="none" stroke-width="1px">12</text><text x="0" y="35.400000000000006" dx="0em" dy="0.3em" style="text-anchor: end; visibility: hidden; font-family: &quot;Helvetica Neue&quot;, sans-serif; font-size: 12px; font-weight: 200;" fill="rgb(50, 49, 63)" stroke="none" stroke-width="1px">14</text><text x="0" y="17.69999999999999" dx="0em" dy="0.3em" style="text-anchor: end; visibility: inherit; font-family: &quot;Helvetica Neue&quot;, sans-serif; font-size: 12px; font-weight: 200;" fill="rgb(50, 49, 63)" stroke="none" stroke-width="1px">16</text><text x="0" y="0" dx="0em" dy="0.3em" style="text-anchor: end; visibility: hidden; font-family: &quot;Helvetica Neue&quot;, sans-serif; font-size: 12px; font-weight: 200;" fill="rgb(50, 49, 63)" stroke="none" stroke-width="1px">18</text></g><line x1="29.4375" y1="0" x2="29.4375" y2="177" fill="rgb(0, 0, 0)" stroke="rgb(204, 204, 204)" stroke-width="1px"></line></g></g><g transform="translate(29, 0)" clip-path="url(#clip_0)"><clipPath id="clip_0"><rect width="300" height="177"></rect></clipPath><g><g><g><line x1="0" y1="0" x2="0" y2="177" fill="rgb(0, 0, 0)" stroke="rgb(60, 60, 60)" stroke-width="1px" opacity="0.25"></line><line x1="25.046875" y1="0" x2="25.046875" y2="177" fill="rgb(0, 0, 0)" stroke="rgb(60, 60, 60)" stroke-width="1px" opacity="0.25"></line><line x1="50.09375" y1="0" x2="50.09375" y2="177" fill="rgb(0, 0, 0)" stroke="rgb(60, 60, 60)" stroke-width="1px" opacity="0.25"></line><line x1="75.140625" y1="0" x2="75.140625" y2="177" fill="rgb(0, 0, 0)" stroke="rgb(60, 60, 60)" stroke-width="1px" opacity="0.25"></line><line x1="100.1875" y1="0" x2="100.1875" y2="177" fill="rgb(0, 0, 0)" stroke="rgb(60, 60, 60)" stroke-width="1px" opacity="0.25"></line><line x1="125.234375" y1="0" x2="125.234375" y2="177" fill="rgb(0, 0, 0)" stroke="rgb(60, 60, 60)" stroke-width="1px" opacity="0.25"></line><line x1="150.28125" y1="0" x2="150.28125" y2="177" fill="rgb(0, 0, 0)" stroke="rgb(60, 60, 60)" stroke-width="1px" opacity="0.25"></line><line x1="175.328125" y1="0" x2="175.328125" y2="177" fill="rgb(0, 0, 0)" stroke="rgb(60, 60, 60)" stroke-width="1px" opacity="0.25"></line><line x1="200.375" y1="0" x2="200.375" y2="177" fill="rgb(0, 0, 0)" stroke="rgb(60, 60, 60)" stroke-width="1px" opacity="0.25"></line><line x1="225.421875" y1="0" x2="225.421875" y2="177" fill="rgb(0, 0, 0)" stroke="rgb(60, 60, 60)" stroke-width="1px" opacity="0.25"></line><line x1="250.46875" y1="0" x2="250.46875" y2="177" fill="rgb(0, 0, 0)" stroke="rgb(60, 60, 60)" stroke-width="1px" opacity="0.25"></line><line x1="275.515625" y1="0" x2="275.515625" y2="177" fill="rgb(0, 0, 0)" stroke="rgb(60, 60, 60)" stroke-width="1px" opacity="0.25"></line><line x1="300.5625" y1="0" x2="300.5625" y2="177" fill="rgb(0, 0, 0)" stroke="rgb(60, 60, 60)" stroke-width="1px" opacity="0.25"></line></g><g><line x1="0" y1="177" x2="300.5625" y2="177" fill="rgb(0, 0, 0)" stroke="rgb(60, 60, 60)" stroke-width="1px" opacity="0.25"></line><line x1="0" y1="159.3" x2="300.5625" y2="159.3" fill="rgb(0, 0, 0)" stroke="rgb(60, 60, 60)" stroke-width="1px" opacity="0.25"></line><line x1="0" y1="141.6" x2="300.5625" y2="141.6" fill="rgb(0, 0, 0)" stroke="rgb(60, 60, 60)" stroke-width="1px" opacity="0.25"></line><line x1="0" y1="123.9" x2="300.5625" y2="123.9" fill="rgb(0, 0, 0)" stroke="rgb(60, 60, 60)" stroke-width="1px" opacity="0.25"></line><line x1="0" y1="106.2" x2="300.5625" y2="106.2" fill="rgb(0, 0, 0)" stroke="rgb(60, 60, 60)" stroke-width="1px" opacity="0.25"></line><line x1="0" y1="88.5" x2="300.5625" y2="88.5" fill="rgb(0, 0, 0)" stroke="rgb(60, 60, 60)" stroke-width="1px" opacity="0.25"></line><line x1="0" y1="70.8" x2="300.5625" y2="70.8" fill="rgb(0, 0, 0)" stroke="rgb(60, 60, 60)" stroke-width="1px" opacity="0.25"></line><line x1="0" y1="53.10000000000001" x2="300.5625" y2="53.10000000000001" fill="rgb(0, 0, 0)" stroke="rgb(60, 60, 60)" stroke-width="1px" opacity="0.25"></line><line x1="0" y1="35.400000000000006" x2="300.5625" y2="35.400000000000006" fill="rgb(0, 0, 0)" stroke="rgb(60, 60, 60)" stroke-width="1px" opacity="0.25"></line><line x1="0" y1="17.69999999999999" x2="300.5625" y2="17.69999999999999" fill="rgb(0, 0, 0)" stroke="rgb(60, 60, 60)" stroke-width="1px" opacity="0.25"></line><line x1="0" y1="0" x2="300.5625" y2="0" fill="rgb(0, 0, 0)" stroke="rgb(60, 60, 60)" stroke-width="1px" opacity="0.25"></line></g></g></g><g><g><line x1="0" y1="159.3" x2="300.5625" y2="159.3" fill="rgb(0, 0, 0)" stroke="rgb(153, 153, 153)" stroke-width="1.5px"></line></g></g><g><g><line x1="25.046875" y1="0" x2="25.046875" y2="177" fill="rgb(0, 0, 0)" stroke="rgb(153, 153, 153)" stroke-width="1.5px"></line></g></g><g><g><g><g><g><path stroke="rgb(0, 153, 136)" stroke-width="2px" d="M30.056250000000002,-14.091305421323199L32.5609375,7.249149199794317L35.065625,23.710137383297536L37.5703125,38.77973100898345L40.075,53.34156853124318L42.5796875,66.09478788264063L45.084375,76.2330794908128L47.5890625,86.47217421383047L50.09375,97.18618876824631L52.598437499999996,105.92377852694551L55.103125,113.08876274570596L57.6078125,117.90078504299505L60.112500000000004,121.91386957750919L62.6171875,124.91816668439324L65.121875,127.51429859077373L67.6265625,130.03933811220782L70.13125,131.24181106893514L72.6359375,132.8192565541513L75.140625,134.1817045317714L77.6453125,135.08612212087243L80.15,136.2280549332291L82.65468750000001,137.42745903215615L85.159375,138.12850359837296L87.6640625,139.26753784262394L90.16875,139.85900559071342L92.6734375,140.62177949804453L95.178125,141.10696898252502L97.6828125,141.90048063148333L100.1875,142.50246954528063L102.6921875,143.2987841916102L105.19687499999999,143.86218721648368L107.7015625,144.43438254195917L110.20625,144.88925270861608L112.7109375,145.30485836830982L115.215625,145.92455117232004L117.7203125,146.03451361414733L120.22500000000001,146.54217577425658L122.7296875,146.93534134945986L125.234375,147.29505448800398L127.7390625,147.58441518119236L130.24375,147.78010857332194L132.7484375,148.35421270039757L135.253125,148.679655174689L137.7578125,148.74883017080055L140.2625,148.87788811408183L142.7671875,149.35962800195523L145.271875,149.68075328595302L147.77656249999998,149.8129333634796L150.28125,150.06338555691497L152.7859375,150.42781683610698L155.290625,150.73653924350089L157.7953125,150.68845282962405L160.3,150.83385907274783L162.8046875,151.3499312559505L165.30937500000002,151.8417489719237L167.8140625,151.9148597509769L170.31875,152.07365879244253L172.82343749999998,152.1874832572141L175.328125,152.29110637316697L177.8328125,152.62139449602122L180.3375,152.78449951819036L182.8421875,152.95706787116202L185.346875,153.1356632173471L187.8515625,153.43188694956376L190.35625,153.55050477291627L192.8609375,153.65203589859894L195.365625,153.9380933121639L197.8703125,154.03684905146343L200.375,154.1793919657158L202.87968750000002,154.14031688895744L205.384375,154.43472818450286L207.8890625,154.5648544282684L210.39374999999998,154.60388538664395L212.8984375,154.83302538410314L215.403125,155.08328827509575L217.9078125,155.17211282306488L220.4125,155.25119961293683L222.9171875,155.3743032580146L225.421875,155.38044253203444L227.9265625,155.4001639235805L230.43125,155.498239391374L232.9359375,155.6550409944817L235.440625,155.83362088155536L237.9453125,155.9386216732966L240.45000000000002,156.05280579168243L242.9546875,156.08445100390102L245.459375,156.297523406763L247.96406249999998,156.4027676460857L250.46875,156.51030899928298L252.9734375,156.59377321092063L255.478125,156.765061364101L257.98281249999997,156.76282524378695L260.4875,156.74008886523006L262.9921875,156.88643416736699L265.496875,156.8213678882967L268.00156250000003,156.94518596389594L270.50625,156.94831648801986L273.0109375,157.0362022226168" style="fill: none;" fill="none"></path></g></g></g></g><g opacity="0.2"><g><g><g><path stroke="rgb(0, 153, 136)" stroke-width="2px" d="M27.5515625,-20.82201318740843L30.056250000000002,18.258830451965338L32.5609375,32.345523834228516L35.065625,45.20160355567933L37.5703125,59.62640404701233L40.075,74.16522917747498L42.5796875,84.68910412788391L45.084375,91.18509035110473L47.5890625,101.67603657245635L50.09375,113.16003527641297L52.598437499999996,118.98261358737946L55.103125,123.81284415721893L57.6078125,125.10939123630524L60.112500000000004,127.92877914905549L62.6171875,129.42249348163605L65.121875,131.40739785432817L67.6265625,133.82625628709792L70.13125,133.04533731937408L72.6359375,135.18528059720992L75.140625,136.2253017783165L77.6453125,136.44271874427795L80.15,137.94093160629274L82.65468750000001,139.2265509724617L85.159375,139.18006546497344L87.6640625,140.9760843515396L90.16875,140.7462056994438L92.6734375,141.76593918800353L95.178125,141.83475276231766L97.6828125,143.09074766635894L100.1875,143.40545271635057L102.6921875,144.49325600266457L105.19687499999999,144.7072916865349L107.7015625,145.29267548918725L110.20625,145.57155793905258L112.7109375,145.92826684713364L115.215625,146.8540903687477L117.7203125,146.19945727586747L120.22500000000001,147.30366901159286L122.7296875,147.52508971095085L125.234375,147.83462419509888L127.7390625,148.01845622062683L130.24375,148.07364866137505L132.7484375,149.21536889076233L135.253125,149.16781888604163L137.7578125,148.85259266495706L140.2625,149.0714750289917L142.7671875,150.08223783373833L145.271875,150.16244121193887L147.77656249999998,150.01120347976683L150.28125,150.43906384706497L152.7859375,150.97446375489235L155.290625,151.19962285459042L157.7953125,150.6163232088089L160.3,151.05196843743323L162.8046875,152.1240395307541L165.30937500000002,152.57947554588318L167.8140625,152.02452591955662L170.31875,152.31185735464095L172.82343749999998,152.35821995437146L175.328125,152.44654104709625L177.8328125,153.1168266803026L180.3375,153.02915705144406L182.8421875,153.2159204006195L185.346875,153.40355623662472L187.8515625,153.87622254788874L190.35625,153.72843150794506L192.8609375,153.80433258712293L195.365625,154.36717943251134L197.8703125,154.1849826604128L200.375,154.3932063370943L202.87968750000002,154.08170427381992L205.384375,154.87634512782097L207.8890625,154.7600437939167L210.39374999999998,154.66243182420732L212.8984375,155.17673538029194L215.403125,155.45868261158466L217.9078125,155.30534964501857L220.4125,155.36982979774476L222.9171875,155.55895872563124L225.421875,155.38965144306422L227.9265625,155.42974601089955L230.43125,155.6453525930643L232.9359375,155.89024339914323L235.440625,156.10149071216583L237.9453125,156.0961228609085L240.45000000000002,156.22408196926116L242.9546875,156.1319188222289L245.459375,156.61713201105596L247.96406249999998,156.56063400506974L250.46875,156.67162102907895L252.9734375,156.71896952837704L255.478125,157.0219935938716L257.98281249999997,156.75947106331586L260.4875,156.70598429739476L262.9921875,157.10595212057234L265.496875,156.72376846969127L268.00156250000003,157.13091307729482L270.50625,156.9530122742057L273.0109375,157.16803082451224" style="fill: none;" fill="none"></path></g></g></g></g></g></g><g transform="translate(29, 177)" clip-path="url(#clip_1)"><clipPath id="clip_1"><rect width="300" height="23"></rect></clipPath><g><g><line x1="0" y1="0" x2="0" y2="5" style="visibility: inherit;" fill="rgb(0, 0, 0)" stroke="rgb(204, 204, 204)" stroke-width="1px"></line><line x1="25.046875" y1="0" x2="25.046875" y2="5" style="visibility: inherit;" fill="rgb(0, 0, 0)" stroke="rgb(204, 204, 204)" stroke-width="1px"></line><line x1="50.09375" y1="0" x2="50.09375" y2="5" style="visibility: inherit;" fill="rgb(0, 0, 0)" stroke="rgb(204, 204, 204)" stroke-width="1px"></line><line x1="75.140625" y1="0" x2="75.140625" y2="5" style="visibility: inherit;" fill="rgb(0, 0, 0)" stroke="rgb(204, 204, 204)" stroke-width="1px"></line><line x1="100.1875" y1="0" x2="100.1875" y2="5" style="visibility: inherit;" fill="rgb(0, 0, 0)" stroke="rgb(204, 204, 204)" stroke-width="1px"></line><line x1="125.234375" y1="0" x2="125.234375" y2="5" style="visibility: inherit;" fill="rgb(0, 0, 0)" stroke="rgb(204, 204, 204)" stroke-width="1px"></line><line x1="150.28125" y1="0" x2="150.28125" y2="5" style="visibility: inherit;" fill="rgb(0, 0, 0)" stroke="rgb(204, 204, 204)" stroke-width="1px"></line><line x1="175.328125" y1="0" x2="175.328125" y2="5" style="visibility: inherit;" fill="rgb(0, 0, 0)" stroke="rgb(204, 204, 204)" stroke-width="1px"></line><line x1="200.375" y1="0" x2="200.375" y2="5" style="visibility: inherit;" fill="rgb(0, 0, 0)" stroke="rgb(204, 204, 204)" stroke-width="1px"></line><line x1="225.421875" y1="0" x2="225.421875" y2="5" style="visibility: inherit;" fill="rgb(0, 0, 0)" stroke="rgb(204, 204, 204)" stroke-width="1px"></line><line x1="250.46875" y1="0" x2="250.46875" y2="5" style="visibility: inherit;" fill="rgb(0, 0, 0)" stroke="rgb(204, 204, 204)" stroke-width="1px"></line><line x1="275.515625" y1="0" x2="275.515625" y2="5" style="visibility: inherit;" fill="rgb(0, 0, 0)" stroke="rgb(204, 204, 204)" stroke-width="1px"></line><line x1="300.5625" y1="0" x2="300.5625" y2="5" style="visibility: inherit;" fill="rgb(0, 0, 0)" stroke="rgb(204, 204, 204)" stroke-width="1px"></line></g><g transform="translate(0, 8)"><text x="0" y="0" dx="0em" dy="0.95em" style="text-anchor: middle; visibility: hidden; font-family: &quot;Helvetica Neue&quot;, sans-serif; font-size: 12px; font-weight: 200;" fill="rgb(50, 49, 63)" stroke="none" stroke-width="1px">-10</text><text x="25.046875" y="0" dx="0em" dy="0.95em" style="text-anchor: middle; visibility: inherit; font-family: &quot;Helvetica Neue&quot;, sans-serif; font-size: 12px; font-weight: 200;" fill="rgb(50, 49, 63)" stroke="none" stroke-width="1px">0</text><text x="50.09375" y="0" dx="0em" dy="0.95em" style="text-anchor: middle; visibility: inherit; font-family: &quot;Helvetica Neue&quot;, sans-serif; font-size: 12px; font-weight: 200;" fill="rgb(50, 49, 63)" stroke="none" stroke-width="1px">10</text><text x="75.140625" y="0" dx="0em" dy="0.95em" style="text-anchor: middle; visibility: inherit; font-family: &quot;Helvetica Neue&quot;, sans-serif; font-size: 12px; font-weight: 200;" fill="rgb(50, 49, 63)" stroke="none" stroke-width="1px">20</text><text x="100.1875" y="0" dx="0em" dy="0.95em" style="text-anchor: middle; visibility: inherit; font-family: &quot;Helvetica Neue&quot;, sans-serif; font-size: 12px; font-weight: 200;" fill="rgb(50, 49, 63)" stroke="none" stroke-width="1px">30</text><text x="125.234375" y="0" dx="0em" dy="0.95em" style="text-anchor: middle; visibility: inherit; font-family: &quot;Helvetica Neue&quot;, sans-serif; font-size: 12px; font-weight: 200;" fill="rgb(50, 49, 63)" stroke="none" stroke-width="1px">40</text><text x="150.28125" y="0" dx="0em" dy="0.95em" style="text-anchor: middle; visibility: inherit; font-family: &quot;Helvetica Neue&quot;, sans-serif; font-size: 12px; font-weight: 200;" fill="rgb(50, 49, 63)" stroke="none" stroke-width="1px">50</text><text x="175.328125" y="0" dx="0em" dy="0.95em" style="text-anchor: middle; visibility: inherit; font-family: &quot;Helvetica Neue&quot;, sans-serif; font-size: 12px; font-weight: 200;" fill="rgb(50, 49, 63)" stroke="none" stroke-width="1px">60</text><text x="200.375" y="0" dx="0em" dy="0.95em" style="text-anchor: middle; visibility: inherit; font-family: &quot;Helvetica Neue&quot;, sans-serif; font-size: 12px; font-weight: 200;" fill="rgb(50, 49, 63)" stroke="none" stroke-width="1px">70</text><text x="225.421875" y="0" dx="0em" dy="0.95em" style="text-anchor: middle; visibility: inherit; font-family: &quot;Helvetica Neue&quot;, sans-serif; font-size: 12px; font-weight: 200;" fill="rgb(50, 49, 63)" stroke="none" stroke-width="1px">80</text><text x="250.46875" y="0" dx="0em" dy="0.95em" style="text-anchor: middle; visibility: inherit; font-family: &quot;Helvetica Neue&quot;, sans-serif; font-size: 12px; font-weight: 200;" fill="rgb(50, 49, 63)" stroke="none" stroke-width="1px">90</text><text x="275.515625" y="0" dx="0em" dy="0.95em" style="text-anchor: middle; visibility: inherit; font-family: &quot;Helvetica Neue&quot;, sans-serif; font-size: 12px; font-weight: 200;" fill="rgb(50, 49, 63)" stroke="none" stroke-width="1px">100</text><text x="300.5625" y="0" dx="0em" dy="0.95em" style="text-anchor: middle; visibility: hidden; font-family: &quot;Helvetica Neue&quot;, sans-serif; font-size: 12px; font-weight: 200;" fill="rgb(50, 49, 63)" stroke="none" stroke-width="1px">110</text></g><line x1="0" y1="0" x2="300.5625" y2="0" fill="rgb(0, 0, 0)" stroke="rgb(204, 204, 204)" stroke-width="1px"></line></g></g></g></g></svg>