<?xml version="1.0" encoding="utf-8" standalone="no"?>
<!DOCTYPE svg PUBLIC "-//W3C//DTD SVG 1.1//EN"
  "http://www.w3.org/Graphics/SVG/1.1/DTD/svg11.dtd">
<!-- Created with matplotlib (https://matplotlib.org/) -->
<svg height="345.6pt" version="1.1" viewBox="0 0 460.8 345.6" width="460.8pt" xmlns="http://www.w3.org/2000/svg" xmlns:xlink="http://www.w3.org/1999/xlink">
 <defs>
  <style type="text/css">
*{stroke-linecap:butt;stroke-linejoin:round;}
  </style>
 </defs>
 <g id="figure_1">
  <g id="patch_1">
   <path d="M 0 345.6 
L 460.8 345.6 
L 460.8 0 
L 0 0 
z
" style="fill:#ffffff;"/>
  </g>
  <g id="axes_1">
   <g id="patch_2">
    <path d="M 57.6 307.584 
L 414.72 307.584 
L 414.72 41.472 
L 57.6 41.472 
z
" style="fill:#ffffff;"/>
   </g>
   <g id="matplotlib.axis_1">
    <g id="xtick_1">
     <g id="line2d_1">
      <defs>
       <path d="M 0 0 
L 0 3.5 
" id="m6d1467ce96" style="stroke:#000000;stroke-width:0.8;"/>
      </defs>
      <g>
       <use style="stroke:#000000;stroke-width:0.8;" x="73.832727" xlink:href="#m6d1467ce96" y="307.584"/>
      </g>
     </g>
     <g id="text_1">
      <!-- 0 -->
      <defs>
       <path d="M 31.78125 66.40625 
Q 24.171875 66.40625 20.328125 58.90625 
Q 16.5 51.421875 16.5 36.375 
Q 16.5 21.390625 20.328125 13.890625 
Q 24.171875 6.390625 31.78125 6.390625 
Q 39.453125 6.390625 43.28125 13.890625 
Q 47.125 21.390625 47.125 36.375 
Q 47.125 51.421875 43.28125 58.90625 
Q 39.453125 66.40625 31.78125 66.40625 
z
M 31.78125 74.21875 
Q 44.046875 74.21875 50.515625 64.515625 
Q 56.984375 54.828125 56.984375 36.375 
Q 56.984375 17.96875 50.515625 8.265625 
Q 44.046875 -1.421875 31.78125 -1.421875 
Q 19.53125 -1.421875 13.0625 8.265625 
Q 6.59375 17.96875 6.59375 36.375 
Q 6.59375 54.828125 13.0625 64.515625 
Q 19.53125 74.21875 31.78125 74.21875 
z
" id="DejaVuSans-48"/>
      </defs>
      <g transform="translate(70.651477 322.182437)scale(0.1 -0.1)">
       <use xlink:href="#DejaVuSans-48"/>
      </g>
     </g>
    </g>
    <g id="xtick_2">
     <g id="line2d_2">
      <g>
       <use style="stroke:#000000;stroke-width:0.8;" x="120.34484" xlink:href="#m6d1467ce96" y="307.584"/>
      </g>
     </g>
     <g id="text_2">
      <!-- 50 -->
      <defs>
       <path d="M 10.796875 72.90625 
L 49.515625 72.90625 
L 49.515625 64.59375 
L 19.828125 64.59375 
L 19.828125 46.734375 
Q 21.96875 47.46875 24.109375 47.828125 
Q 26.265625 48.1875 28.421875 48.1875 
Q 40.625 48.1875 47.75 41.5 
Q 54.890625 34.8125 54.890625 23.390625 
Q 54.890625 11.625 47.5625 5.09375 
Q 40.234375 -1.421875 26.90625 -1.421875 
Q 22.3125 -1.421875 17.546875 -0.640625 
Q 12.796875 0.140625 7.71875 1.703125 
L 7.71875 11.625 
Q 12.109375 9.234375 16.796875 8.0625 
Q 21.484375 6.890625 26.703125 6.890625 
Q 35.15625 6.890625 40.078125 11.328125 
Q 45.015625 15.765625 45.015625 23.390625 
Q 45.015625 31 40.078125 35.4375 
Q 35.15625 39.890625 26.703125 39.890625 
Q 22.75 39.890625 18.8125 39.015625 
Q 14.890625 38.140625 10.796875 36.28125 
z
" id="DejaVuSans-53"/>
      </defs>
      <g transform="translate(113.98234 322.182437)scale(0.1 -0.1)">
       <use xlink:href="#DejaVuSans-53"/>
       <use x="63.623047" xlink:href="#DejaVuSans-48"/>
      </g>
     </g>
    </g>
    <g id="xtick_3">
     <g id="line2d_3">
      <g>
       <use style="stroke:#000000;stroke-width:0.8;" x="166.856952" xlink:href="#m6d1467ce96" y="307.584"/>
      </g>
     </g>
     <g id="text_3">
      <!-- 100 -->
      <defs>
       <path d="M 12.40625 8.296875 
L 28.515625 8.296875 
L 28.515625 63.921875 
L 10.984375 60.40625 
L 10.984375 69.390625 
L 28.421875 72.90625 
L 38.28125 72.90625 
L 38.28125 8.296875 
L 54.390625 8.296875 
L 54.390625 0 
L 12.40625 0 
z
" id="DejaVuSans-49"/>
      </defs>
      <g transform="translate(157.313202 322.182437)scale(0.1 -0.1)">
       <use xlink:href="#DejaVuSans-49"/>
       <use x="63.623047" xlink:href="#DejaVuSans-48"/>
       <use x="127.246094" xlink:href="#DejaVuSans-48"/>
      </g>
     </g>
    </g>
    <g id="xtick_4">
     <g id="line2d_4">
      <g>
       <use style="stroke:#000000;stroke-width:0.8;" x="213.369065" xlink:href="#m6d1467ce96" y="307.584"/>
      </g>
     </g>
     <g id="text_4">
      <!-- 150 -->
      <g transform="translate(203.825315 322.182437)scale(0.1 -0.1)">
       <use xlink:href="#DejaVuSans-49"/>
       <use x="63.623047" xlink:href="#DejaVuSans-53"/>
       <use x="127.246094" xlink:href="#DejaVuSans-48"/>
      </g>
     </g>
    </g>
    <g id="xtick_5">
     <g id="line2d_5">
      <g>
       <use style="stroke:#000000;stroke-width:0.8;" x="259.881177" xlink:href="#m6d1467ce96" y="307.584"/>
      </g>
     </g>
     <g id="text_5">
      <!-- 200 -->
      <defs>
       <path d="M 19.1875 8.296875 
L 53.609375 8.296875 
L 53.609375 0 
L 7.328125 0 
L 7.328125 8.296875 
Q 12.9375 14.109375 22.625 23.890625 
Q 32.328125 33.6875 34.8125 36.53125 
Q 39.546875 41.84375 41.421875 45.53125 
Q 43.3125 49.21875 43.3125 52.78125 
Q 43.3125 58.59375 39.234375 62.25 
Q 35.15625 65.921875 28.609375 65.921875 
Q 23.96875 65.921875 18.8125 64.3125 
Q 13.671875 62.703125 7.8125 59.421875 
L 7.8125 69.390625 
Q 13.765625 71.78125 18.9375 73 
Q 24.125 74.21875 28.421875 74.21875 
Q 39.75 74.21875 46.484375 68.546875 
Q 53.21875 62.890625 53.21875 53.421875 
Q 53.21875 48.921875 51.53125 44.890625 
Q 49.859375 40.875 45.40625 35.40625 
Q 44.1875 33.984375 37.640625 27.21875 
Q 31.109375 20.453125 19.1875 8.296875 
z
" id="DejaVuSans-50"/>
      </defs>
      <g transform="translate(250.337427 322.182437)scale(0.1 -0.1)">
       <use xlink:href="#DejaVuSans-50"/>
       <use x="63.623047" xlink:href="#DejaVuSans-48"/>
       <use x="127.246094" xlink:href="#DejaVuSans-48"/>
      </g>
     </g>
    </g>
    <g id="xtick_6">
     <g id="line2d_6">
      <g>
       <use style="stroke:#000000;stroke-width:0.8;" x="306.39329" xlink:href="#m6d1467ce96" y="307.584"/>
      </g>
     </g>
     <g id="text_6">
      <!-- 250 -->
      <g transform="translate(296.84954 322.182437)scale(0.1 -0.1)">
       <use xlink:href="#DejaVuSans-50"/>
       <use x="63.623047" xlink:href="#DejaVuSans-53"/>
       <use x="127.246094" xlink:href="#DejaVuSans-48"/>
      </g>
     </g>
    </g>
    <g id="xtick_7">
     <g id="line2d_7">
      <g>
       <use style="stroke:#000000;stroke-width:0.8;" x="352.905402" xlink:href="#m6d1467ce96" y="307.584"/>
      </g>
     </g>
     <g id="text_7">
      <!-- 300 -->
      <defs>
       <path d="M 40.578125 39.3125 
Q 47.65625 37.796875 51.625 33 
Q 55.609375 28.21875 55.609375 21.1875 
Q 55.609375 10.40625 48.1875 4.484375 
Q 40.765625 -1.421875 27.09375 -1.421875 
Q 22.515625 -1.421875 17.65625 -0.515625 
Q 12.796875 0.390625 7.625 2.203125 
L 7.625 11.71875 
Q 11.71875 9.328125 16.59375 8.109375 
Q 21.484375 6.890625 26.8125 6.890625 
Q 36.078125 6.890625 40.9375 10.546875 
Q 45.796875 14.203125 45.796875 21.1875 
Q 45.796875 27.640625 41.28125 31.265625 
Q 36.765625 34.90625 28.71875 34.90625 
L 20.21875 34.90625 
L 20.21875 43.015625 
L 29.109375 43.015625 
Q 36.375 43.015625 40.234375 45.921875 
Q 44.09375 48.828125 44.09375 54.296875 
Q 44.09375 59.90625 40.109375 62.90625 
Q 36.140625 65.921875 28.71875 65.921875 
Q 24.65625 65.921875 20.015625 65.03125 
Q 15.375 64.15625 9.8125 62.3125 
L 9.8125 71.09375 
Q 15.4375 72.65625 20.34375 73.4375 
Q 25.25 74.21875 29.59375 74.21875 
Q 40.828125 74.21875 47.359375 69.109375 
Q 53.90625 64.015625 53.90625 55.328125 
Q 53.90625 49.265625 50.4375 45.09375 
Q 46.96875 40.921875 40.578125 39.3125 
z
" id="DejaVuSans-51"/>
      </defs>
      <g transform="translate(343.361652 322.182437)scale(0.1 -0.1)">
       <use xlink:href="#DejaVuSans-51"/>
       <use x="63.623047" xlink:href="#DejaVuSans-48"/>
       <use x="127.246094" xlink:href="#DejaVuSans-48"/>
      </g>
     </g>
    </g>
    <g id="xtick_8">
     <g id="line2d_8">
      <g>
       <use style="stroke:#000000;stroke-width:0.8;" x="399.417515" xlink:href="#m6d1467ce96" y="307.584"/>
      </g>
     </g>
     <g id="text_8">
      <!-- 350 -->
      <g transform="translate(389.873765 322.182437)scale(0.1 -0.1)">
       <use xlink:href="#DejaVuSans-51"/>
       <use x="63.623047" xlink:href="#DejaVuSans-53"/>
       <use x="127.246094" xlink:href="#DejaVuSans-48"/>
      </g>
     </g>
    </g>
    <g id="text_9">
     <!-- Epoch -->
     <defs>
      <path d="M 9.8125 72.90625 
L 55.90625 72.90625 
L 55.90625 64.59375 
L 19.671875 64.59375 
L 19.671875 43.015625 
L 54.390625 43.015625 
L 54.390625 34.71875 
L 19.671875 34.71875 
L 19.671875 8.296875 
L 56.78125 8.296875 
L 56.78125 0 
L 9.8125 0 
z
" id="DejaVuSans-69"/>
      <path d="M 18.109375 8.203125 
L 18.109375 -20.796875 
L 9.078125 -20.796875 
L 9.078125 54.6875 
L 18.109375 54.6875 
L 18.109375 46.390625 
Q 20.953125 51.265625 25.265625 53.625 
Q 29.59375 56 35.59375 56 
Q 45.5625 56 51.78125 48.09375 
Q 58.015625 40.1875 58.015625 27.296875 
Q 58.015625 14.40625 51.78125 6.484375 
Q 45.5625 -1.421875 35.59375 -1.421875 
Q 29.59375 -1.421875 25.265625 0.953125 
Q 20.953125 3.328125 18.109375 8.203125 
z
M 48.6875 27.296875 
Q 48.6875 37.203125 44.609375 42.84375 
Q 40.53125 48.484375 33.40625 48.484375 
Q 26.265625 48.484375 22.1875 42.84375 
Q 18.109375 37.203125 18.109375 27.296875 
Q 18.109375 17.390625 22.1875 11.75 
Q 26.265625 6.109375 33.40625 6.109375 
Q 40.53125 6.109375 44.609375 11.75 
Q 48.6875 17.390625 48.6875 27.296875 
z
" id="DejaVuSans-112"/>
      <path d="M 30.609375 48.390625 
Q 23.390625 48.390625 19.1875 42.75 
Q 14.984375 37.109375 14.984375 27.296875 
Q 14.984375 17.484375 19.15625 11.84375 
Q 23.34375 6.203125 30.609375 6.203125 
Q 37.796875 6.203125 41.984375 11.859375 
Q 46.1875 17.53125 46.1875 27.296875 
Q 46.1875 37.015625 41.984375 42.703125 
Q 37.796875 48.390625 30.609375 48.390625 
z
M 30.609375 56 
Q 42.328125 56 49.015625 48.375 
Q 55.71875 40.765625 55.71875 27.296875 
Q 55.71875 13.875 49.015625 6.21875 
Q 42.328125 -1.421875 30.609375 -1.421875 
Q 18.84375 -1.421875 12.171875 6.21875 
Q 5.515625 13.875 5.515625 27.296875 
Q 5.515625 40.765625 12.171875 48.375 
Q 18.84375 56 30.609375 56 
z
" id="DejaVuSans-111"/>
      <path d="M 48.78125 52.59375 
L 48.78125 44.1875 
Q 44.96875 46.296875 41.140625 47.34375 
Q 37.3125 48.390625 33.40625 48.390625 
Q 24.65625 48.390625 19.8125 42.84375 
Q 14.984375 37.3125 14.984375 27.296875 
Q 14.984375 17.28125 19.8125 11.734375 
Q 24.65625 6.203125 33.40625 6.203125 
Q 37.3125 6.203125 41.140625 7.25 
Q 44.96875 8.296875 48.78125 10.40625 
L 48.78125 2.09375 
Q 45.015625 0.34375 40.984375 -0.53125 
Q 36.96875 -1.421875 32.421875 -1.421875 
Q 20.0625 -1.421875 12.78125 6.34375 
Q 5.515625 14.109375 5.515625 27.296875 
Q 5.515625 40.671875 12.859375 48.328125 
Q 20.21875 56 33.015625 56 
Q 37.15625 56 41.109375 55.140625 
Q 45.0625 54.296875 48.78125 52.59375 
z
" id="DejaVuSans-99"/>
      <path d="M 54.890625 33.015625 
L 54.890625 0 
L 45.90625 0 
L 45.90625 32.71875 
Q 45.90625 40.484375 42.875 44.328125 
Q 39.84375 48.1875 33.796875 48.1875 
Q 26.515625 48.1875 22.3125 43.546875 
Q 18.109375 38.921875 18.109375 30.90625 
L 18.109375 0 
L 9.078125 0 
L 9.078125 75.984375 
L 18.109375 75.984375 
L 18.109375 46.1875 
Q 21.34375 51.125 25.703125 53.5625 
Q 30.078125 56 35.796875 56 
Q 45.21875 56 50.046875 50.171875 
Q 54.890625 44.34375 54.890625 33.015625 
z
" id="DejaVuSans-104"/>
     </defs>
     <g transform="translate(220.849063 335.860562)scale(0.1 -0.1)">
      <use xlink:href="#DejaVuSans-69"/>
      <use x="63.183594" xlink:href="#DejaVuSans-112"/>
      <use x="126.660156" xlink:href="#DejaVuSans-111"/>
      <use x="187.841797" xlink:href="#DejaVuSans-99"/>
      <use x="242.822266" xlink:href="#DejaVuSans-104"/>
     </g>
    </g>
   </g>
   <g id="matplotlib.axis_2">
    <g id="ytick_1">
     <g id="line2d_9">
      <defs>
       <path d="M 0 0 
L -3.5 0 
" id="m6b27a2c4de" style="stroke:#000000;stroke-width:0.8;"/>
      </defs>
      <g>
       <use style="stroke:#000000;stroke-width:0.8;" x="57.6" xlink:href="#m6b27a2c4de" y="282.056755"/>
      </g>
     </g>
     <g id="text_10">
      <!-- 0.5 -->
      <defs>
       <path d="M 10.6875 12.40625 
L 21 12.40625 
L 21 0 
L 10.6875 0 
z
" id="DejaVuSans-46"/>
      </defs>
      <g transform="translate(34.696875 285.855974)scale(0.1 -0.1)">
       <use xlink:href="#DejaVuSans-48"/>
       <use x="63.623047" xlink:href="#DejaVuSans-46"/>
       <use x="95.410156" xlink:href="#DejaVuSans-53"/>
      </g>
     </g>
    </g>
    <g id="ytick_2">
     <g id="line2d_10">
      <g>
       <use style="stroke:#000000;stroke-width:0.8;" x="57.6" xlink:href="#m6b27a2c4de" y="225.832455"/>
      </g>
     </g>
     <g id="text_11">
      <!-- 1.0 -->
      <g transform="translate(34.696875 229.631674)scale(0.1 -0.1)">
       <use xlink:href="#DejaVuSans-49"/>
       <use x="63.623047" xlink:href="#DejaVuSans-46"/>
       <use x="95.410156" xlink:href="#DejaVuSans-48"/>
      </g>
     </g>
    </g>
    <g id="ytick_3">
     <g id="line2d_11">
      <g>
       <use style="stroke:#000000;stroke-width:0.8;" x="57.6" xlink:href="#m6b27a2c4de" y="169.608155"/>
      </g>
     </g>
     <g id="text_12">
      <!-- 1.5 -->
      <g transform="translate(34.696875 173.407374)scale(0.1 -0.1)">
       <use xlink:href="#DejaVuSans-49"/>
       <use x="63.623047" xlink:href="#DejaVuSans-46"/>
       <use x="95.410156" xlink:href="#DejaVuSans-53"/>
      </g>
     </g>
    </g>
    <g id="ytick_4">
     <g id="line2d_12">
      <g>
       <use style="stroke:#000000;stroke-width:0.8;" x="57.6" xlink:href="#m6b27a2c4de" y="113.383855"/>
      </g>
     </g>
     <g id="text_13">
      <!-- 2.0 -->
      <g transform="translate(34.696875 117.183074)scale(0.1 -0.1)">
       <use xlink:href="#DejaVuSans-50"/>
       <use x="63.623047" xlink:href="#DejaVuSans-46"/>
       <use x="95.410156" xlink:href="#DejaVuSans-48"/>
      </g>
     </g>
    </g>
    <g id="ytick_5">
     <g id="line2d_13">
      <g>
       <use style="stroke:#000000;stroke-width:0.8;" x="57.6" xlink:href="#m6b27a2c4de" y="57.159555"/>
      </g>
     </g>
     <g id="text_14">
      <!-- 2.5 -->
      <g transform="translate(34.696875 60.958774)scale(0.1 -0.1)">
       <use xlink:href="#DejaVuSans-50"/>
       <use x="63.623047" xlink:href="#DejaVuSans-46"/>
       <use x="95.410156" xlink:href="#DejaVuSans-53"/>
      </g>
     </g>
    </g>
    <g id="text_15">
     <!-- Loss -->
     <defs>
      <path d="M 9.8125 72.90625 
L 19.671875 72.90625 
L 19.671875 8.296875 
L 55.171875 8.296875 
L 55.171875 0 
L 9.8125 0 
z
" id="DejaVuSans-76"/>
      <path d="M 44.28125 53.078125 
L 44.28125 44.578125 
Q 40.484375 46.53125 36.375 47.5 
Q 32.28125 48.484375 27.875 48.484375 
Q 21.1875 48.484375 17.84375 46.4375 
Q 14.5 44.390625 14.5 40.28125 
Q 14.5 37.15625 16.890625 35.375 
Q 19.28125 33.59375 26.515625 31.984375 
L 29.59375 31.296875 
Q 39.15625 29.25 43.1875 25.515625 
Q 47.21875 21.78125 47.21875 15.09375 
Q 47.21875 7.46875 41.1875 3.015625 
Q 35.15625 -1.421875 24.609375 -1.421875 
Q 20.21875 -1.421875 15.453125 -0.5625 
Q 10.6875 0.296875 5.421875 2 
L 5.421875 11.28125 
Q 10.40625 8.6875 15.234375 7.390625 
Q 20.0625 6.109375 24.8125 6.109375 
Q 31.15625 6.109375 34.5625 8.28125 
Q 37.984375 10.453125 37.984375 14.40625 
Q 37.984375 18.0625 35.515625 20.015625 
Q 33.0625 21.96875 24.703125 23.78125 
L 21.578125 24.515625 
Q 13.234375 26.265625 9.515625 29.90625 
Q 5.8125 33.546875 5.8125 39.890625 
Q 5.8125 47.609375 11.28125 51.796875 
Q 16.75 56 26.8125 56 
Q 31.78125 56 36.171875 55.265625 
Q 40.578125 54.546875 44.28125 53.078125 
z
" id="DejaVuSans-115"/>
     </defs>
     <g transform="translate(28.617188 185.581906)rotate(-90)scale(0.1 -0.1)">
      <use xlink:href="#DejaVuSans-76"/>
      <use x="55.697266" xlink:href="#DejaVuSans-111"/>
      <use x="116.878906" xlink:href="#DejaVuSans-115"/>
      <use x="168.978516" xlink:href="#DejaVuSans-115"/>
     </g>
    </g>
   </g>
   <g id="line2d_14">
    <path clip-path="url(#pb14a30133a)" d="M 73.832727 53.568 
L 74.76297 94.103735 
L 75.693212 126.368549 
L 76.623454 141.185079 
L 78.483939 182.719493 
L 79.414181 188.47819 
L 81.274665 214.430151 
L 82.204908 223.892262 
L 83.13515 223.271575 
L 84.065392 213.355141 
L 84.995634 213.549497 
L 86.856119 238.193191 
L 87.786361 246.441988 
L 88.716603 249.704454 
L 89.646846 249.866583 
L 90.577088 249.788155 
L 91.50733 249.060167 
L 92.437572 248.761689 
L 93.367815 249.991572 
L 94.298057 249.471366 
L 95.228299 249.552669 
L 96.158541 254.832566 
L 98.019026 269.571904 
L 98.949268 272.370562 
L 99.87951 270.397869 
L 100.809753 266.472319 
L 101.739995 264.970296 
L 102.670237 264.904762 
L 104.530722 271.998241 
L 105.460964 274.34477 
L 106.391206 274.119056 
L 107.321448 274.495127 
L 108.251691 274.60174 
L 109.181933 274.928197 
L 110.112175 276.10366 
L 111.042417 276.00272 
L 111.97266 274.208302 
L 112.902902 271.753104 
L 113.833144 271.048003 
L 114.763386 273.231498 
L 115.693629 277.498233 
L 116.623871 280.177556 
L 117.554113 281.906878 
L 118.484355 281.710097 
L 119.414598 278.405438 
L 120.34484 276.372488 
L 122.205324 271.932639 
L 123.135567 271.715551 
L 124.996051 268.439044 
L 125.926293 273.824685 
L 127.786778 281.851757 
L 128.71702 285.030662 
L 129.647262 286.971354 
L 130.577505 287.109924 
L 131.507747 285.429259 
L 133.368231 283.492628 
L 134.298474 284.054505 
L 135.228716 285.394447 
L 136.158958 285.044618 
L 137.0892 282.35589 
L 138.019443 281.72962 
L 138.949685 281.479146 
L 139.879927 279.029383 
L 140.810169 281.871889 
L 141.740412 287.693797 
L 142.670654 288.994147 
L 143.600896 286.054362 
L 144.531138 281.103806 
L 145.461381 278.476133 
L 146.391623 280.976256 
L 147.321865 286.651201 
L 148.252107 288.798503 
L 149.18235 287.696596 
L 150.112592 285.598736 
L 151.042834 282.028907 
L 151.973076 279.546608 
L 152.903319 278.996198 
L 153.833561 282.121303 
L 154.763803 285.87289 
L 155.694045 284.793927 
L 156.624288 277.841203 
L 157.55453 269.862905 
L 158.484772 271.162123 
L 160.345257 283.250547 
L 161.275499 282.991633 
L 162.205741 281.760632 
L 163.135983 279.969929 
L 164.066226 277.384652 
L 164.996468 275.477943 
L 165.92671 274.453654 
L 166.856952 277.21298 
L 168.717437 288.069383 
L 169.647679 290.218667 
L 170.577921 289.700158 
L 171.508164 285.218204 
L 172.438406 275.070818 
L 173.368648 273.567839 
L 174.29889 276.289105 
L 175.229133 283.44476 
L 176.159375 286.055438 
L 177.089617 284.929118 
L 178.019859 281.727254 
L 178.950102 277.525703 
L 179.880344 274.233548 
L 180.810586 277.393087 
L 181.740828 285.494027 
L 182.671071 288.527638 
L 183.601313 286.658668 
L 184.531555 283.462685 
L 185.461797 282.321318 
L 186.39204 282.69166 
L 187.322282 283.365488 
L 188.252524 285.59522 
L 189.182766 287.140006 
L 190.113009 287.493358 
L 191.043251 286.721413 
L 191.973493 284.519757 
L 192.903735 282.807042 
L 193.833978 282.379067 
L 194.76422 282.467524 
L 195.694462 283.479923 
L 196.624704 289.683295 
L 197.554947 292.338759 
L 198.485189 289.959279 
L 199.415431 286.576869 
L 200.345673 284.258237 
L 201.275916 286.33978 
L 202.206158 290.730802 
L 203.1364 292.382107 
L 204.066642 289.900767 
L 204.996885 286.063694 
L 205.927127 285.619523 
L 206.857369 285.711065 
L 208.717854 290.64555 
L 209.648096 291.711311 
L 210.578338 293.054886 
L 211.50858 293.352322 
L 212.438823 292.640792 
L 213.369065 289.725581 
L 214.299307 284.089747 
L 215.229549 282.966133 
L 216.159792 285.170503 
L 217.090034 289.61375 
L 218.020276 291.901413 
L 218.950518 291.073559 
L 220.811003 284.298804 
L 221.741245 284.47561 
L 222.671487 282.744573 
L 223.60173 283.232999 
L 224.531972 284.737273 
L 225.462214 289.282187 
L 226.392456 288.158433 
L 227.322699 284.749198 
L 229.183183 276.9001 
L 230.113425 278.411225 
L 231.043668 279.404556 
L 231.97391 278.201854 
L 233.834394 288.098378 
L 234.764637 290.218889 
L 235.694879 287.462708 
L 236.625121 283.654945 
L 237.555363 281.049096 
L 238.485606 282.822407 
L 239.415848 281.815866 
L 240.34609 281.856293 
L 241.276332 283.693133 
L 242.206575 286.43598 
L 243.136817 287.506532 
L 244.067059 287.462749 
L 244.997301 286.524258 
L 245.927544 283.329663 
L 246.857786 284.254394 
L 248.71827 290.983817 
L 249.648513 291.76347 
L 250.578755 289.736007 
L 251.508997 288.767345 
L 252.439239 289.623099 
L 253.369482 291.348912 
L 254.299724 292.592841 
L 255.229966 293.294246 
L 256.160208 292.614399 
L 258.020693 285.20109 
L 258.950935 285.429937 
L 259.881177 286.314698 
L 260.81142 289.837672 
L 261.741662 290.122734 
L 262.671904 290.940162 
L 263.602146 292.935159 
L 264.532389 295.488 
L 265.462631 294.191837 
L 266.392873 291.9094 
L 267.323115 287.803938 
L 268.253358 286.059362 
L 269.1836 286.564496 
L 270.113842 291.315294 
L 271.044084 292.319167 
L 271.974327 289.030748 
L 272.904569 287.17812 
L 273.834811 288.581527 
L 274.765053 284.786731 
L 275.695296 280.050902 
L 276.625538 279.525401 
L 278.486022 290.131138 
L 279.416265 291.630544 
L 280.346507 289.162305 
L 281.276749 288.315842 
L 282.206991 290.191196 
L 283.137234 288.069251 
L 284.067476 288.132242 
L 284.997718 290.954174 
L 285.92796 292.56308 
L 286.858203 292.303039 
L 287.788445 289.813579 
L 288.718687 289.364093 
L 289.648929 288.537626 
L 290.579172 288.59239 
L 291.509414 286.876331 
L 292.439656 285.480792 
L 293.369898 288.900063 
L 294.300141 290.394536 
L 295.230383 288.845336 
L 296.160625 290.660865 
L 297.090867 289.649834 
L 298.02111 287.066488 
L 298.951352 285.785343 
L 299.881594 285.71097 
L 300.811836 286.368813 
L 301.742079 284.75348 
L 302.672321 285.043103 
L 303.602563 286.795921 
L 304.532805 289.249716 
L 305.463048 288.362308 
L 306.39329 284.549823 
L 307.323532 283.986651 
L 308.253774 286.347369 
L 309.184017 290.884872 
L 310.114259 289.727534 
L 311.974743 279.874841 
L 312.904986 284.067225 
L 313.835228 289.442489 
L 314.76547 293.630127 
L 315.695712 292.074115 
L 316.625955 286.449453 
L 317.556197 282.978995 
L 318.486439 284.788857 
L 319.416681 289.226909 
L 320.346924 291.008092 
L 321.277166 289.452733 
L 322.207408 286.178375 
L 323.13765 283.725687 
L 324.067893 288.46347 
L 324.998135 289.227298 
L 325.928377 286.092804 
L 326.858619 284.373837 
L 327.788862 286.042869 
L 328.719104 288.53243 
L 329.649346 288.798275 
L 330.579588 289.197887 
L 331.509831 285.814083 
L 332.440073 284.548411 
L 333.370315 286.258688 
L 334.300557 290.735347 
L 335.2308 292.391235 
L 337.091284 290.467042 
L 338.021526 288.784429 
L 338.951769 288.784886 
L 339.882011 288.31455 
L 341.742495 285.509868 
L 342.672738 287.316129 
L 343.60298 292.340609 
L 344.533222 293.699163 
L 345.463464 289.628277 
L 346.393707 286.569337 
L 347.323949 287.104828 
L 348.254191 289.986615 
L 350.114676 291.210327 
L 351.044918 288.987995 
L 351.97516 285.479041 
L 352.905402 279.792551 
L 353.835645 277.350167 
L 354.765887 282.575848 
L 355.696129 284.246877 
L 356.626371 280.166401 
L 357.556614 279.319464 
L 358.486856 284.073382 
L 359.417098 284.063459 
L 360.34734 281.323934 
L 361.277583 281.975411 
L 362.207825 282.122855 
L 364.068309 285.564944 
L 364.998552 283.821565 
L 365.928794 284.090138 
L 366.859036 281.059642 
L 367.789278 280.804406 
L 368.719521 283.385511 
L 369.649763 287.639199 
L 370.580005 288.035806 
L 371.510247 286.519067 
L 372.44049 288.30456 
L 373.370732 287.201525 
L 374.300974 281.633551 
L 375.231216 273.637911 
L 376.161459 274.543232 
L 377.091701 281.378888 
L 378.021943 291.213681 
L 378.952185 294.889451 
L 379.882428 293.328986 
L 380.81267 288.722689 
L 381.742912 286.367107 
L 382.673154 283.142136 
L 383.603397 283.818754 
L 384.533639 286.090217 
L 385.463881 291.632692 
L 386.394123 292.950822 
L 387.324366 291.882458 
L 388.254608 289.021393 
L 389.18485 286.909484 
L 390.115092 285.787777 
L 391.045335 287.934065 
L 391.975577 290.75728 
L 392.905819 291.678447 
L 393.836061 288.39068 
L 394.766304 284.217888 
L 395.696546 281.554017 
L 396.626788 281.084144 
L 397.55703 282.671768 
L 398.487273 283.329932 
L 398.487273 283.329932 
" style="fill:none;stroke:#1f77b4;stroke-linecap:square;stroke-width:1.5;"/>
   </g>
   <g id="patch_3">
    <path d="M 57.6 307.584 
L 57.6 41.472 
" style="fill:none;stroke:#000000;stroke-linecap:square;stroke-linejoin:miter;stroke-width:0.8;"/>
   </g>
   <g id="patch_4">
    <path d="M 414.72 307.584 
L 414.72 41.472 
" style="fill:none;stroke:#000000;stroke-linecap:square;stroke-linejoin:miter;stroke-width:0.8;"/>
   </g>
   <g id="patch_5">
    <path d="M 57.6 307.584 
L 414.72 307.584 
" style="fill:none;stroke:#000000;stroke-linecap:square;stroke-linejoin:miter;stroke-width:0.8;"/>
   </g>
   <g id="patch_6">
    <path d="M 57.6 41.472 
L 414.72 41.472 
" style="fill:none;stroke:#000000;stroke-linecap:square;stroke-linejoin:miter;stroke-width:0.8;"/>
   </g>
   <g id="text_16">
    <!-- Loss at Each Epoch: err = 0.16128333333333333 -->
    <defs>
     <path id="DejaVuSans-32"/>
     <path d="M 34.28125 27.484375 
Q 23.390625 27.484375 19.1875 25 
Q 14.984375 22.515625 14.984375 16.5 
Q 14.984375 11.71875 18.140625 8.90625 
Q 21.296875 6.109375 26.703125 6.109375 
Q 34.1875 6.109375 38.703125 11.40625 
Q 43.21875 16.703125 43.21875 25.484375 
L 43.21875 27.484375 
z
M 52.203125 31.203125 
L 52.203125 0 
L 43.21875 0 
L 43.21875 8.296875 
Q 40.140625 3.328125 35.546875 0.953125 
Q 30.953125 -1.421875 24.3125 -1.421875 
Q 15.921875 -1.421875 10.953125 3.296875 
Q 6 8.015625 6 15.921875 
Q 6 25.140625 12.171875 29.828125 
Q 18.359375 34.515625 30.609375 34.515625 
L 43.21875 34.515625 
L 43.21875 35.40625 
Q 43.21875 41.609375 39.140625 45 
Q 35.0625 48.390625 27.6875 48.390625 
Q 23 48.390625 18.546875 47.265625 
Q 14.109375 46.140625 10.015625 43.890625 
L 10.015625 52.203125 
Q 14.9375 54.109375 19.578125 55.046875 
Q 24.21875 56 28.609375 56 
Q 40.484375 56 46.34375 49.84375 
Q 52.203125 43.703125 52.203125 31.203125 
z
" id="DejaVuSans-97"/>
     <path d="M 18.3125 70.21875 
L 18.3125 54.6875 
L 36.8125 54.6875 
L 36.8125 47.703125 
L 18.3125 47.703125 
L 18.3125 18.015625 
Q 18.3125 11.328125 20.140625 9.421875 
Q 21.96875 7.515625 27.59375 7.515625 
L 36.8125 7.515625 
L 36.8125 0 
L 27.59375 0 
Q 17.1875 0 13.234375 3.875 
Q 9.28125 7.765625 9.28125 18.015625 
L 9.28125 47.703125 
L 2.6875 47.703125 
L 2.6875 54.6875 
L 9.28125 54.6875 
L 9.28125 70.21875 
z
" id="DejaVuSans-116"/>
     <path d="M 11.71875 12.40625 
L 22.015625 12.40625 
L 22.015625 0 
L 11.71875 0 
z
M 11.71875 51.703125 
L 22.015625 51.703125 
L 22.015625 39.3125 
L 11.71875 39.3125 
z
" id="DejaVuSans-58"/>
     <path d="M 56.203125 29.59375 
L 56.203125 25.203125 
L 14.890625 25.203125 
Q 15.484375 15.921875 20.484375 11.0625 
Q 25.484375 6.203125 34.421875 6.203125 
Q 39.59375 6.203125 44.453125 7.46875 
Q 49.3125 8.734375 54.109375 11.28125 
L 54.109375 2.78125 
Q 49.265625 0.734375 44.1875 -0.34375 
Q 39.109375 -1.421875 33.890625 -1.421875 
Q 20.796875 -1.421875 13.15625 6.1875 
Q 5.515625 13.8125 5.515625 26.8125 
Q 5.515625 40.234375 12.765625 48.109375 
Q 20.015625 56 32.328125 56 
Q 43.359375 56 49.78125 48.890625 
Q 56.203125 41.796875 56.203125 29.59375 
z
M 47.21875 32.234375 
Q 47.125 39.59375 43.09375 43.984375 
Q 39.0625 48.390625 32.421875 48.390625 
Q 24.90625 48.390625 20.390625 44.140625 
Q 15.875 39.890625 15.1875 32.171875 
z
" id="DejaVuSans-101"/>
     <path d="M 41.109375 46.296875 
Q 39.59375 47.171875 37.8125 47.578125 
Q 36.03125 48 33.890625 48 
Q 26.265625 48 22.1875 43.046875 
Q 18.109375 38.09375 18.109375 28.8125 
L 18.109375 0 
L 9.078125 0 
L 9.078125 54.6875 
L 18.109375 54.6875 
L 18.109375 46.1875 
Q 20.953125 51.171875 25.484375 53.578125 
Q 30.03125 56 36.53125 56 
Q 37.453125 56 38.578125 55.875 
Q 39.703125 55.765625 41.0625 55.515625 
z
" id="DejaVuSans-114"/>
     <path d="M 10.59375 45.40625 
L 73.1875 45.40625 
L 73.1875 37.203125 
L 10.59375 37.203125 
z
M 10.59375 25.484375 
L 73.1875 25.484375 
L 73.1875 17.1875 
L 10.59375 17.1875 
z
" id="DejaVuSans-61"/>
     <path d="M 33.015625 40.375 
Q 26.375 40.375 22.484375 35.828125 
Q 18.609375 31.296875 18.609375 23.390625 
Q 18.609375 15.53125 22.484375 10.953125 
Q 26.375 6.390625 33.015625 6.390625 
Q 39.65625 6.390625 43.53125 10.953125 
Q 47.40625 15.53125 47.40625 23.390625 
Q 47.40625 31.296875 43.53125 35.828125 
Q 39.65625 40.375 33.015625 40.375 
z
M 52.59375 71.296875 
L 52.59375 62.3125 
Q 48.875 64.0625 45.09375 64.984375 
Q 41.3125 65.921875 37.59375 65.921875 
Q 27.828125 65.921875 22.671875 59.328125 
Q 17.53125 52.734375 16.796875 39.40625 
Q 19.671875 43.65625 24.015625 45.921875 
Q 28.375 48.1875 33.59375 48.1875 
Q 44.578125 48.1875 50.953125 41.515625 
Q 57.328125 34.859375 57.328125 23.390625 
Q 57.328125 12.15625 50.6875 5.359375 
Q 44.046875 -1.421875 33.015625 -1.421875 
Q 20.359375 -1.421875 13.671875 8.265625 
Q 6.984375 17.96875 6.984375 36.375 
Q 6.984375 53.65625 15.1875 63.9375 
Q 23.390625 74.21875 37.203125 74.21875 
Q 40.921875 74.21875 44.703125 73.484375 
Q 48.484375 72.75 52.59375 71.296875 
z
" id="DejaVuSans-54"/>
     <path d="M 31.78125 34.625 
Q 24.75 34.625 20.71875 30.859375 
Q 16.703125 27.09375 16.703125 20.515625 
Q 16.703125 13.921875 20.71875 10.15625 
Q 24.75 6.390625 31.78125 6.390625 
Q 38.8125 6.390625 42.859375 10.171875 
Q 46.921875 13.96875 46.921875 20.515625 
Q 46.921875 27.09375 42.890625 30.859375 
Q 38.875 34.625 31.78125 34.625 
z
M 21.921875 38.8125 
Q 15.578125 40.375 12.03125 44.71875 
Q 8.5 49.078125 8.5 55.328125 
Q 8.5 64.0625 14.71875 69.140625 
Q 20.953125 74.21875 31.78125 74.21875 
Q 42.671875 74.21875 48.875 69.140625 
Q 55.078125 64.0625 55.078125 55.328125 
Q 55.078125 49.078125 51.53125 44.71875 
Q 48 40.375 41.703125 38.8125 
Q 48.828125 37.15625 52.796875 32.3125 
Q 56.78125 27.484375 56.78125 20.515625 
Q 56.78125 9.90625 50.3125 4.234375 
Q 43.84375 -1.421875 31.78125 -1.421875 
Q 19.734375 -1.421875 13.25 4.234375 
Q 6.78125 9.90625 6.78125 20.515625 
Q 6.78125 27.484375 10.78125 32.3125 
Q 14.796875 37.15625 21.921875 38.8125 
z
M 18.3125 54.390625 
Q 18.3125 48.734375 21.84375 45.5625 
Q 25.390625 42.390625 31.78125 42.390625 
Q 38.140625 42.390625 41.71875 45.5625 
Q 45.3125 48.734375 45.3125 54.390625 
Q 45.3125 60.0625 41.71875 63.234375 
Q 38.140625 66.40625 31.78125 66.40625 
Q 25.390625 66.40625 21.84375 63.234375 
Q 18.3125 60.0625 18.3125 54.390625 
z
" id="DejaVuSans-56"/>
    </defs>
    <g transform="translate(86.187187 35.472)scale(0.12 -0.12)">
     <use xlink:href="#DejaVuSans-76"/>
     <use x="55.697266" xlink:href="#DejaVuSans-111"/>
     <use x="116.878906" xlink:href="#DejaVuSans-115"/>
     <use x="168.978516" xlink:href="#DejaVuSans-115"/>
     <use x="221.078125" xlink:href="#DejaVuSans-32"/>
     <use x="252.865234" xlink:href="#DejaVuSans-97"/>
     <use x="314.144531" xlink:href="#DejaVuSans-116"/>
     <use x="353.353516" xlink:href="#DejaVuSans-32"/>
     <use x="385.140625" xlink:href="#DejaVuSans-69"/>
     <use x="448.324219" xlink:href="#DejaVuSans-97"/>
     <use x="509.603516" xlink:href="#DejaVuSans-99"/>
     <use x="564.583984" xlink:href="#DejaVuSans-104"/>
     <use x="627.962891" xlink:href="#DejaVuSans-32"/>
     <use x="659.75" xlink:href="#DejaVuSans-69"/>
     <use x="722.933594" xlink:href="#DejaVuSans-112"/>
     <use x="786.410156" xlink:href="#DejaVuSans-111"/>
     <use x="847.591797" xlink:href="#DejaVuSans-99"/>
     <use x="902.572266" xlink:href="#DejaVuSans-104"/>
     <use x="965.951172" xlink:href="#DejaVuSans-58"/>
     <use x="999.642578" xlink:href="#DejaVuSans-32"/>
     <use x="1031.429688" xlink:href="#DejaVuSans-101"/>
     <use x="1092.953125" xlink:href="#DejaVuSans-114"/>
     <use x="1134.050781" xlink:href="#DejaVuSans-114"/>
     <use x="1175.164062" xlink:href="#DejaVuSans-32"/>
     <use x="1206.951172" xlink:href="#DejaVuSans-61"/>
     <use x="1290.740234" xlink:href="#DejaVuSans-32"/>
     <use x="1322.527344" xlink:href="#DejaVuSans-48"/>
     <use x="1386.150391" xlink:href="#DejaVuSans-46"/>
     <use x="1417.9375" xlink:href="#DejaVuSans-49"/>
     <use x="1481.560547" xlink:href="#DejaVuSans-54"/>
     <use x="1545.183594" xlink:href="#DejaVuSans-49"/>
     <use x="1608.806641" xlink:href="#DejaVuSans-50"/>
     <use x="1672.429688" xlink:href="#DejaVuSans-56"/>
     <use x="1736.052734" xlink:href="#DejaVuSans-51"/>
     <use x="1799.675781" xlink:href="#DejaVuSans-51"/>
     <use x="1863.298828" xlink:href="#DejaVuSans-51"/>
     <use x="1926.921875" xlink:href="#DejaVuSans-51"/>
     <use x="1990.544922" xlink:href="#DejaVuSans-51"/>
     <use x="2054.167969" xlink:href="#DejaVuSans-51"/>
     <use x="2117.791016" xlink:href="#DejaVuSans-51"/>
     <use x="2181.414062" xlink:href="#DejaVuSans-51"/>
     <use x="2245.037109" xlink:href="#DejaVuSans-51"/>
     <use x="2308.660156" xlink:href="#DejaVuSans-51"/>
     <use x="2372.283203" xlink:href="#DejaVuSans-51"/>
     <use x="2435.90625" xlink:href="#DejaVuSans-51"/>
    </g>
   </g>
  </g>
 </g>
 <defs>
  <clipPath id="pb14a30133a">
   <rect height="266.112" width="357.12" x="57.6" y="41.472"/>
  </clipPath>
 </defs>
</svg>
